$MeshFormat
2.2 0 8
$EndMeshFormat
$PhysicalNames
4
1 1 "Lower"
1 2 "Upper"
1 3 "Load"
2 4 "Solid"
$EndPhysicalNames
$Nodes
1266
1 0 0 0
2 1 0 0
3 1 9.9 0
4 1 20 0
5 0 20 0
6 0 10 0
7 1 10.1 0
8 0.2499999999994109 0 0
9 0.4999999999986918 0 0
10 0.7499999999993401 0 0
11 0.1249999999997752 0 0
12 0.3749999999990514 0 0
13 0.624999999999016 0 0
14 0.87499999999967 0 0
15 1 0.2999999999994029 0
16 1 0.5999999999987142 0
17 1 0.8999999999981904 0
18 1 1.19999999999766 0
19 1 1.49999999999672 0
20 1 1.799999999995868 0
21 1 2.099999999994805 0
22 1 2.39999999999399 0
23 1 2.699999999993178 0
24 1 2.999999999992209 0
25 1 3.299999999991319 0
26 1 3.59999999999039 0
27 1 3.899999999989403 0
28 1 4.199999999988363 0
29 1 4.499999999987398 0
30 1 4.799999999986269 0
31 1 5.099999999985954 0
32 1 5.399999999986485 0
33 1 5.699999999987362 0
34 1 5.99999999998824 0
35 1 6.299999999989023 0
36 1 6.599999999989706 0
37 1 6.899999999990526 0
38 1 7.199999999991404 0
39 1 7.499999999992276 0
40 1 7.799999999992959 0
41 1 8.09999999999369 0
42 1 8.399999999994778 0
43 1 8.699999999995613 0
44 1 8.999999999996671 0
45 1 9.299999999997896 0
46 1 9.599999999999122 0
47 1 0.1499999999996982 0
48 1 0.4499999999990479 0
49 1 0.7499999999984477 0
50 1 1.049999999997914 0
51 1 1.349999999997226 0
52 1 1.64999999999635 0
53 1 1.94999999999533 0
54 1 2.249999999994398 0
55 1 2.549999999993578 0
56 1 2.849999999992688 0
57 1 3.149999999991729 0
58 1 3.449999999990812 0
59 1 3.74999999998989 0
60 1 4.049999999988858 0
61 1 4.349999999987847 0
62 1 4.649999999986845 0
63 1 4.949999999985639 0
64 1 5.249999999986169 0
65 1 5.549999999986956 0
66 1 5.849999999987817 0
67 1 6.149999999988619 0
68 1 6.449999999989364 0
69 1 6.749999999990091 0
70 1 7.049999999990971 0
71 1 7.349999999991728 0
72 1 7.649999999992712 0
73 1 7.949999999993411 0
74 1 8.249999999994206 0
75 1 8.549999999995311 0
76 1 8.849999999996141 0
77 1 9.149999999997261 0
78 1 9.449999999998509 0
79 1 9.749999999999602 0
80 1 10 0
81 1 10.39999999999965 0
82 1 10.69999999999957 0
83 1 10.99999999999953 0
84 1 11.29999999999965 0
85 1 11.59999999999931 0
86 1 11.89999999999896 0
87 1 12.19999999999797 0
88 1 12.49999999999757 0
89 1 12.79999999999757 0
90 1 13.09999999999653 0
91 1 13.39999999999549 0
92 1 13.69999999999445 0
93 1 13.99999999999361 0
94 1 14.29999999999296 0
95 1 14.59999999999203 0
96 1 14.89999999999066 0
97 1 15.19999999998995 0
98 1 15.49999999999099 0
99 1 15.79999999999182 0
100 1 16.09999999999154 0
101 1 16.39999999999149 0
102 1 16.69999999999145 0
103 1 16.99999999999195 0
104 1 17.29999999999206 0
105 1 17.59999999999201 0
106 1 17.89999999999197 0
107 1 18.19999999999262 0
108 1 18.49999999999397 0
109 1 18.79999999999531 0
110 1 19.09999999999665 0
111 1 19.39999999999748 0
112 1 19.69999999999865 0
113 1 10.24999999999982 0
114 1 10.54999999999973 0
115 1 10.84999999999955 0
116 1 11.14999999999947 0
117 1 11.44999999999946 0
118 1 11.7499999999993 0
119 1 12.04999999999837 0
120 1 12.34999999999781 0
121 1 12.64999999999741 0
122 1 12.94999999999702 0
123 1 13.24999999999603 0
124 1 13.54999999999503 0
125 1 13.84999999999427 0
126 1 14.14999999999357 0
127 1 14.44999999999236 0
128 1 14.74999999999132 0
129 1 15.04999999998958 0
130 1 15.34999999999055 0
131 1 15.64999999999159 0
132 1 15.94999999999165 0
133 1 16.24999999999174 0
134 1 16.54999999999147 0
135 1 16.84999999999184 0
136 1 17.1499999999919 0
137 1 17.44999999999228 0
138 1 17.74999999999199 0
139 1 18.04999999999222 0
140 1 18.34999999999353 0
141 1 18.64999999999461 0
142 1 18.9499999999959 0
143 1 19.24999999999726 0
144 1 19.54999999999806 0
145 1 19.84999999999918 0
146 0.7500000000003477 20 0
147 0.5000000000020616 20 0
148 0.2500000000010419 20 0
149 0.875000000000137 20 0
150 0.6250000000011955 20 0
151 0.3750000000015518 20 0
152 0.125000000000521 20 0
153 0 19.70588235294118 0
154 0 19.41176470588235 0
155 0 19.11764705882353 0
156 0 18.8235294117647 0
157 0 18.52941176470588 0
158 0 18.23529411764705 0
159 0 17.94117647058823 0
160 0 17.64705882352941 0
161 0 17.35294117647058 0
162 0 17.05882352941176 0
163 0 16.76470588235294 0
164 0 16.47058823529411 0
165 0 16.17647058823529 0
166 0 15.88235294117647 0
167 0 15.58823529411764 0
168 0 15.29411764705882 0
169 0 15 0
170 0 14.70588235294117 0
171 0 14.41176470588235 0
172 0 14.11764705882353 0
173 0 13.8235294117647 0
174 0 13.52941176470588 0
175 0 13.23529411764706 0
176 0 12.94117647058823 0
177 0 12.64705882352941 0
178 0 12.35294117647059 0
179 0 12.05882352941176 0
180 0 11.76470588235294 0
181 0 11.47058823529412 0
182 0 11.17647058823529 0
183 0 10.88235294117647 0
184 0 10.58823529411765 0
185 0 10.29411764705882 0
186 0 19.85294117647008 0
187 0 19.55882352941158 0
188 0 19.26470588235313 0
189 0 18.9705882352943 0
190 0 18.67647058823576 0
191 0 18.38235294117636 0
192 0 18.08823529411816 0
193 0 17.79411764705893 0
194 0 17.50000000000038 0
195 0 17.20588235294109 0
196 0 16.91176470588198 0
197 0 16.61764705882372 0
198 0 16.32352941176515 0
199 0 16.02941176470599 0
200 0 15.73529411764685 0
201 0 15.44117647058829 0
202 0 15.14705882352983 0
203 0 14.85294117647035 0
204 0 14.55882352941168 0
205 0 14.26470588235294 0
206 0 13.97058823529403 0
207 0 13.67647058823525 0
208 0 13.38235294117638 0
209 0 13.08823529411772 0
210 0 12.79411764705905 0
211 0 12.49999999999991 0
212 0 12.20588235294133 0
213 0 11.91176470588235 0
214 0 11.61764705882365 0
215 0 11.32352941176486 0
216 0 11.02941176470595 0
217 0 10.73529411764722 0
218 0 10.44117647058809 0
219 0 10.14705882352943 0
220 0 9.705882352941176 0
221 0 9.411764705882351 0
222 0 9.117647058823529 0
223 0 8.823529411764705 0
224 0 8.52941176470588 0
225 0 8.235294117647056 0
226 0 7.941176470588232 0
227 0 7.647058823529408 0
228 0 7.352941176470583 0
229 0 7.05882352941176 0
230 0 6.764705882352937 0
231 0 6.470588235294113 0
232 0 6.17647058823529 0
233 0 5.882352941176467 0
234 0 5.588235294117644 0
235 0 5.294117647058821 0
236 0 4.999999999999996 0
237 0 4.705882352941174 0
238 0 4.411764705882351 0
239 0 4.117647058823527 0
240 0 3.823529411764703 0
241 0 3.52941176470588 0
242 0 3.235294117647057 0
243 0 2.941176470588234 0
244 0 2.64705882352941 0
245 0 2.352941176470588 0
246 0 2.058823529411763 0
247 0 1.76470588235294 0
248 0 1.470588235294116 0
249 0 1.176470588235293 0
250 0 0.8823529411764692 0
251 0 0.5882352941176467 0
252 0 0.2941176470588225 0
253 0 9.852941176470821 0
254 0 9.558823529411999 0
255 0 9.264705882352869 0
256 0 8.970588235293903 0
257 0 8.676470588235079 0
258 0 8.382352941176233 0
259 0 8.088235294117524 0
260 0 7.794117647058631 0
261 0 7.500000000000029 0
262 0 7.205882352941266 0
263 0 6.911764705882344 0
264 0 6.617647058823607 0
265 0 6.323529411764548 0
266 0 6.029411764705895 0
267 0 5.735294117647124 0
268 0 5.4411764705882 0
269 0 5.147058823529417 0
270 0 4.852941176470597 0
271 0 4.558823529411718 0
272 0 4.264705882352939 0
273 0 3.970588235294199 0
274 0 3.676470588235352 0
275 0 3.382352941176505 0
276 0 3.088235294117554 0
277 0 2.794117647058973 0
278 0 2.500000000000046 0
279 0 2.205882352941206 0
280 0 1.911764705882307 0
281 0 1.617647058823646 0
282 0 1.323529411764865 0
283 0 1.02941176470595 0
284 0 0.7352941176472179 0
285 0 0.4411764705880916 0
286 0 0.1470588235294343 0
287 0.8100418349540229 9.997347751931832 0
288 0.2477991227851551 0.7383071678686669 0
289 0.2477991227846121 19.26169283213138 0
290 0.2547133540542457 1.323529411764705 0
291 0.2547133540542457 18.6764705882353 0
292 0.2547133540542457 1.911764705882351 0
293 0.2547133540542457 18.08823529411762 0
294 0.2417466473881826 2.50872834567091 0
295 0.2417466473867804 17.49127165432667 0
296 0.2413462778999361 3.108913178079212 0
297 0.2413158582906392 16.89127746393322 0
298 0.2409572400430387 3.700879031285595 0
299 0.2410040288835407 16.29893032274834 0
300 0.2406795887796927 4.293035578972206 0
301 0.2406960260172559 15.70677377131876 0
302 0.2404643308920325 4.885382832369925 0
303 0.2404221583359558 15.11480782086658 0
304 0.2402668743195731 14.5224605116556 0
305 0.2402575076905521 5.477539488337502 0
306 0.2677070102867716 10.46829301195888 0
307 0.2834740550534365 9.579273283799012 0
308 0.240080119030065 13.93049446314336 0
309 0.2407804739755549 11.06950553685452 0
310 0.2400801190293362 6.069505536850853 0
311 0.2807534732230554 8.944344398049351 0
312 0.2547133540542457 13.38235294117646 0
313 0.2547133540542457 11.61764705882353 0
314 0.2547133540542465 6.617647058823527 0
315 0.2547133540542473 8.382352941176464 0
316 0.2547133540542465 12.79411764705882 0
317 0.2547133540542457 12.20588235294116 0
318 0.2547133540542473 7.794117647058817 0
319 0.2547133540542465 7.205882352941175 0
320 0.7411561968627938 0.4322298168887177 0
321 0.7411561968634828 19.56777018311006 0
322 0.7443221588634381 1.043137254900552 0
323 0.7443221588622291 18.95667171007968 0
324 0.7433744015186525 1.639215686272031 0
325 0.7433269826088373 18.36078431372106 0
326 0.7424268061156154 2.235294117643339 0
327 0.7424695987873331 17.76489691736323 0
328 0.7459650986521864 2.849994312698356 0
329 0.7459183298639886 17.15029202835527 0
330 0.3821313107469667 0.2076130070045817 0
331 0.3821313107490255 19.79238699299556 0
332 0.7462509118295111 3.449993975087454 0
333 0.746295372686503 16.55000605086413 0
334 0.7465360183481455 4.049707289047664 0
335 0.746578171595185 15.94971999119968 0
336 0.7468134909799482 4.649993378749872 0
337 0.7467736464082302 15.35000660254294 0
338 0.7470013278430826 5.250279542951665 0
339 0.7470013276435533 14.75000682800605 0
340 0.7471064503012703 5.849993029669713 0
341 0.7483406144161991 10.84989735994889 0
342 0.7471064503023603 14.15000697031135 0
343 0.7123023616353703 9.143935073911429 0
344 0.7472345370099261 6.449992915248826 0
345 0.7472016185085482 11.44970655353523 0
346 0.7472345370109517 13.55000708473554 0
347 0.7472016185079333 8.550293446459442 0
348 0.7472799021163198 12.04999286531835 0
349 0.7472492930033617 7.049992871824238 0
350 0.7471964836048695 12.94990433026439 0
351 0.7472273667343496 7.949904236518623 0
352 0.7945084113259837 9.748757904262355 0
353 0.6047776935513027 9.898969674336852 0
354 0.6250438986164025 10.12870690593653 0
355 0.4278717440099594 10.02113866457419 0
356 0.559076905426579 9.642308420365264 0
357 0.7418372608749121 19.25192323717517 0
358 0.7418372608760551 0.7480684748237189 0
359 0.7449144587360924 18.6617328667101 0
360 0.7491782037945326 5.550133936711219 0
361 0.4991898098070138 5.668907995238734 0
362 0.7486290541898045 15.64986545850829 0
363 0.4987429094556625 15.52455498371579 0
364 0.7494320289760895 8.250135358607851 0
365 0.4818730421365748 8.100571102432218 0
366 0.7477795265498857 16.85015067321211 0
367 0.4980776011295474 16.71809688454355 0
368 0.7457846381155645 8.834106551118095 0
369 0.471596201865697 8.671064425028353 0
370 0.7494740884733748 6.750085882396235 0
371 0.4818730433378691 6.900000913339297 0
372 0.7493221942472627 6.149895351196236 0
373 0.4818730421365999 6.299428897550646 0
374 0.7437007988412293 18.06702530321734 0
375 0.7489415405777784 4.950134201668495 0
376 0.4990419039479247 5.072319484976271 0
377 0.7495224018499131 11.14983167929782 0
378 0.4818730421380424 11.29942889756135 0
379 0.7482665431945112 16.24986505524634 0
380 0.4984862623897713 16.12114323456191 0
381 0.7427257548360077 17.46046981194375 0
382 0.4928124391377873 17.32583492145604 0
383 0.7488950548111531 15.05010417693524 0
384 0.4989966493848494 14.92789506609579 0
385 0.7494407848735612 11.74984749169308 0
386 0.4818730421387764 11.89942889756098 0
387 0.7491782037622137 14.44991379176481 0
388 0.4991913709072184 14.33109995949639 0
389 0.7493221942482802 13.85010464878644 0
390 0.4818730421390948 13.70057110243263 0
391 0.7427264175228798 2.539609750725721 0
392 0.4928671131727267 2.674321368548164 0
393 0.7436587772087964 1.933006535945124 0
394 0.7449697807970416 1.338235294116062 0
395 0.7478266801932549 3.150087696629005 0
396 0.4980690782127182 3.281974617809659 0
397 0.7485865161633782 4.349848435365796 0
398 0.498749106943915 4.475365557395695 0
399 0.7482076462527791 3.749848849814552 0
400 0.4983890302432464 3.878491231589251 0
401 0.7494652869077326 13.2498969846067 0
402 0.4818730433405997 13.0999990866477 0
403 0.748363834394608 12.65007972477474 0
404 0.7497127713290445 12.35010029963175 0
405 0.4818730433399629 12.50000091334678 0
406 0.7483154399772941 7.349610008848657 0
407 0.749698464227579 7.64963281896802 0
408 0.4818736181065881 7.498856160222781 0
409 0.7327593832595698 10.58084924688549 0
410 0.4896089103779959 10.69999999999948 0
411 0.2529929975386623 1.617647058823528 0
412 0.2529397346967879 1.029542484988299 0
413 0.2449957192832396 2.20733707721966 0
414 0.2450385119551218 17.79266292277993 0
415 0.2544502138834461 9.261130584331767 0
416 0.2547133540542527 18.38235294117649 0
417 0.2529397346965334 18.97045751501168 0
418 0.758683949953774 9.471851399858144 0
419 0.6168571232952794 19.798269301072 0
420 0.616857123293185 0.2017306989279421 0
421 0.2569000254471674 0.4265615037444257 0
422 0.4968210165662817 0.6014623279395328 0
423 0.2569000254478775 19.57343849625548 0
424 0.4968210165664871 19.39853629072674 0
425 0.2276105162482107 9.882133068028701 0
426 0.4958953718507292 0.889498049792677 0
427 0.4958953718498392 19.11046849948156 0
428 0.497218264557624 1.182421788476068 0
429 0.4955877144505233 18.81924803957851 0
430 0.4969999163430191 1.477625853634222 0
431 0.4969977605820831 18.52264714451141 0
432 0.4942992716322061 1.770640177097151 0
433 0.4945337430018832 18.22939611305772 0
434 0.8188058741353084 10.19468103144592 0
435 0.4944249274778098 17.93154589567755 0
436 0.494364581087415 2.068497298376369 0
437 0.4931878807616765 2.372297993030694 0
438 0.49320297993014 17.62778035392452 0
439 0.5073742032736799 9.369357636848195 0
440 0.4496416972668503 10.27374613675116 0
441 0.2481385109663661 2.813455860846753 0
442 0.2480775599043861 17.18669726720636 0
443 0.495702126516198 2.979791172435191 0
444 0.4956635524793723 17.02039153978442 0
445 0.249208359974942 16.59051066527676 0
446 0.2491597502259228 3.409405941124772 0
447 0.4968896947098025 16.4214253688735 0
448 0.4968389428012028 3.57843227445188 0
449 0.2529692551128352 10.78472400814154 0
450 0.2493870674298079 4.002257226551272 0
451 0.2494559635145652 15.99752298812059 0
452 0.4970980645270407 15.8249300712375 0
453 0.4970545546513643 4.174784219820314 0
454 0.2496424013200105 4.595327067093922 0
455 0.249597234414209 15.40475500762189 0
456 0.4972754624436016 4.771420420375696 0
457 0.49723794213501 15.22868727629637 0
458 0.2497956805545526 14.81175260286694 0
459 0.249808690635894 5.188314931179743 0
460 0.4974129072865 5.367915896565854 0
461 0.4974050177619934 14.63218812664759 0
462 0.4576422116858697 9.125721475410442 0
463 0.2498762500490218 14.21891823904205 0
464 0.249874428760447 5.781083086742028 0
465 0.5068904464498929 14.01542870223285 0
466 0.5012405505188802 10.9825339187125 0
467 0.5068901588306143 5.984572086913145 0
468 0.5430318526905249 13.3965654399198 0
469 0.5430336130024034 6.603431133471708 0
470 0.5430203683426348 11.60321177983483 0
471 0.5409632491081083 8.390883454740864 0
472 0.5430771690518679 7.798616393040092 0
473 0.5430904225956699 12.20108106575981 0
474 0.1953333030446811 13.67327193664461 0
475 0.1954733740335686 11.32672806335376 0
476 0.1953333030440365 6.326728063350886 0
477 0.2014126058285999 8.670140588144951 0
478 0.5428039517468572 12.79882034041849 0
479 0.5428049496958719 7.200868461435229 0
480 0.1982599500494536 11.90929754421808 0
481 0.1982599500490139 8.090702455780557 0
482 0.1982599502898184 13.09058805262365 0
483 0.1982599502892724 6.909411947373738 0
484 0.1982600652430163 7.499771232044553 0
485 0.198259950289691 12.50000018266935 0
486 0.2288051613019653 10.15657142139529 0
487 0.6589436371061169 10.34735049936161 0
488 0.519732127659461 10.47404777899132 0
489 0.8216026640310639 0.1867921031632125 0
490 0.8216026640318219 19.81320789683614 0
491 0.177806267239589 19.81434156843844 0
492 0.177806267238709 0.185658431561566 0
493 0.4279749304382537 9.801139822856728 0
494 0.4987731345832789 0.37391947090104 0
495 0.4987731345844305 19.62608025283197 0
496 0.533476199725692 8.927183919009458 0
497 0.2449781845395434 14.07470635109271 0
498 0.3734852827399789 13.97296158268811 0
499 0.3783833482494574 14.11717347063745 0
500 0.2449772738948916 5.92529431179644 0
501 0.3783822937955307 5.882827586827586 0
502 0.3734851389299753 6.027038811881999 0
503 0.3745338104781201 14.27500909926922 0
504 0.5030409086785557 14.17326433086462 0
505 0.3745321192837304 5.724995540990381 0
506 0.503039984318814 5.82674004107594 0
507 0.246874864544195 10.92711477249803 0
508 0.3771049028158577 10.88362896342702 0
509 0.3710105122472175 11.02601972778351 0
510 0.3712890827454155 10.74236200407051 0
511 0.495424730448438 10.84126695935599 0
512 0.327741130129085 9.951635866301444 0
513 0.3283384526559623 10.08885504298474 0
514 0.228207838775088 10.019352244712 0
515 0.2450330991632231 5.332927209758623 0
516 0.373610798961197 5.278115413872799 0
517 0.3688352074885261 5.422727692451678 0
518 0.2450312774370628 14.66710655726127 0
519 0.3688359460407832 14.5773243191516 0
520 0.373600349158273 14.72197036475727 0
521 0.374396164969701 14.86982383448136 0
522 0.4982008335734214 14.78004159637169 0
523 0.3744252972919093 5.130317208078007 0
524 0.4982274056172123 5.220117690771063 0
525 0.3682931980954232 6.458537978187087 0
526 0.2250233285491415 6.472187561087207 0
527 0.3386031725903182 6.313078480450766 0
528 0.3682931980961441 11.45853797819244 0
529 0.2250933640439072 11.47218756108865 0
530 0.3386732080858055 11.31307848045756 0
531 0.3682931980966703 13.54146202180454 0
532 0.3386031725918879 13.68692151953861 0
533 0.2250233285494634 13.52781243891053 0
534 0.3631547779599721 8.526708683102409 0
535 0.3365044038471485 8.670602506586652 0
536 0.2280629799414236 8.526246764660709 0
537 0.5124533275695017 6.451430015511177 0
538 0.398873483528325 6.610539096147617 0
539 0.3988726033723853 13.38945919054813 0
540 0.5124524474148098 13.54856827117622 0
541 0.5124467052403386 11.45132033869809 0
542 0.3988668611984403 11.61042941932918 0
543 0.3978383015811778 8.386618197958665 0
544 0.5062797254869027 8.530973939884609 0
545 0.1138052581241054 9.94106653401435 0
546 0.1144025806509827 10.07828571069765 0
547 0.3741957541319628 4.535346312244808 0
548 0.4980122846937583 4.623392988885696 0
549 0.3734589318818061 4.683373743734808 0
550 0.2450533661060215 4.740354949731923 0
551 0.3688698966678171 4.828401626372811 0
552 0.3682931980954111 7.947344374745517 0
553 0.3988952615530575 7.796367020049455 0
554 0.5124751055942214 7.949593747736155 0
555 0.3682931980965111 12.05265562525107 0
556 0.5124817323672232 12.05025498166039 0
557 0.3989018883249578 12.20348170935048 0
558 0.2450096963750824 15.25978141424424 0
559 0.3688300502354829 15.17174754858148 0
560 0.3734175882746095 15.31672114195913 0
561 0.3741700719349357 15.46465499566884 0
562 0.4979904257953363 15.37662113000608 0
563 0.2264866520518496 12.05758994857962 0
564 0.340066496094115 11.90436322088953 0
565 0.3400664960927944 8.095636779106387 0
566 0.2264866520516306 7.942410051419687 0
567 0.3682931986974231 12.94705836685326 0
568 0.3987586529005519 12.79646899373865 0
569 0.5123384975437284 12.9494097135331 0
570 0.3682931986960578 7.052941633140236 0
571 0.5123389965168705 7.050434687387263 0
572 0.3987591518750592 7.203375407188203 0
573 0.2264866521717595 7.057647150157456 0
574 0.3400664968135707 6.904706430356518 0
575 0.340066496815209 13.09529356963568 0
576 0.2264866521720325 12.94235284984124 0
577 0.9094029370676542 10.29734051572279 0
578 0.8294718185530585 10.37367524968063 0
579 0.7388747556207127 10.27101576540377 0
580 0.3739711129521682 16.05933311134125 0
581 0.3732770140208029 15.91122652967905 0
582 0.497792163458406 15.97303665289971 0
583 0.3682934860804177 7.646486903640799 0
584 0.512475393579228 7.648736276631436 0
585 0.2450759947659106 15.85214837971968 0
586 0.3688970452721483 15.76585192127813 0
587 0.3738880488365272 3.940374229070262 0
588 0.4977217924473054 4.026637725704783 0
589 0.3732208110405861 4.088520723185793 0
590 0.2450333281047503 4.147646402761739 0
591 0.3688670717155285 4.233909899396259 0
592 0.2264867096486318 7.646944439551685 0
593 0.3400668416748023 7.499313696133667 0
594 0.3682931986971048 12.6470592802028 0
595 0.5123384975434101 12.64941062688264 0
596 0.3682931986971043 12.35294163314397 0
597 0.5124817329678164 12.35054098955329 0
598 0.340066496814827 12.50000054800807 0
599 0.2264866521719684 12.35294126780526 0
600 0.2264866521719688 12.64705891486408 0
601 0.3682934860804173 7.352369256581978 0
602 0.51233928390123 7.349862310829005 0
603 0.2264867096486314 7.352826792492865 0
604 0.6177690969868974 17.39315236669989 0
605 0.6179643673830738 17.54412508293414 0
606 0.4930077095339636 17.47680763769028 0
607 0.6177967653478033 2.606965559636943 0
608 0.4930274969672016 2.523309680789429 0
609 0.6179571491422782 2.455953871878207 0
610 0.3736429805522447 16.65430377491015 0
611 0.3730490273423723 16.50596801707513 0
612 0.4974836479196749 16.56976112670853 0
613 0.3736144142193205 3.345690279467216 0
614 0.4974540105069605 3.43020344613077 0
615 0.3729993465135628 3.493919107788326 0
616 0.2451061944292413 16.44472049401255 0
617 0.3689468617966716 16.36017784581092 0
618 0.3682931986974227 13.24117601391208 0
619 0.5124524480155623 13.24828226328375 0
620 0.3682931986960578 6.758823986081412 0
621 0.5124533281701362 6.751716023405502 0
622 0.2450584951344808 3.555142486205184 0
623 0.3688980914221207 3.639655652868738 0
624 0.3682931980954111 8.241462021804342 0
625 0.5114181456223416 8.245727278586541 0
626 0.3682931980965111 11.75853797819226 0
627 0.5124467052407056 11.75132033869791 0
628 0.2264866521720321 13.23647049690006 0
629 0.2264866521717595 6.763529503098633 0
630 0.2264866520516306 8.236527698478511 0
631 0.2264866520518496 11.7634723015208 0
632 0.8663796916297849 10.49042462344257 0
633 0.6958515101828433 10.46409987312355 0
634 0.8972542056629919 9.824378952131177 0
635 0.8972542056629919 9.674378952130738 0
636 0.3705028120695464 2.743888614697459 0
637 0.4942846198444624 2.827056270491678 0
638 0.3719203187412821 2.896623516640972 0
639 0.7354931557945721 9.307893236884787 0
640 0.633029076613727 9.420604518353169 0
641 0.6098382824545251 9.256646355379811 0
642 0.3704449995210867 17.2562660943312 0
643 0.3718705561918793 17.10354440349539 0
644 0.4942379958085798 17.17311323062023 0
645 0.3609765805845799 13.815532782788 0
646 0.4943817442944938 13.85799990233274 0
647 0.3613267580567987 11.18446721720793 0
648 0.4915567963284613 11.14098140813692 0
649 0.3609765805829681 6.18446721720075 0
650 0.4943816004836071 6.142000492231896 0
651 0.2447423944331511 2.961184519462982 0
652 0.368524202208067 3.044352175257202 0
653 0.9094029370676542 10.14734051572296 0
654 0.2446967090975126 17.03898736556979 0
655 0.3684897053850058 16.95583450185882 0
656 0.217706711037373 13.80188319989399 0
657 0.3761748375443762 8.807704411538852 0
658 0.2410830395258277 8.807242493097151 0
659 0.2181269240045618 11.19811680010414 0
660 0.2177067110366864 6.19811680010087 0
661 0.3672795432622838 17.40855328789135 0
662 0.3674748136584602 17.55952600412559 0
663 0.3673068802804547 2.591524857109537 0
664 0.3674672640749296 2.440513169350802 0
665 0.3786579603323837 10.58414650597918 0
666 0.2603381326998034 10.62650851005021 0
667 0.4825082074797748 9.247539556129318 0
668 0.58497228666062 9.134828274660936 0
669 0.3937195689731163 10.4711703954751 0
670 0.5046705190187284 10.5870238894954 0
671 0.3697291226133957 14.42678023557599 0
672 0.4982981943346059 14.48164404307199 0
673 0.3697236587487829 5.573223741788118 0
674 0.4983013585467568 5.518411945902294 0
675 0.9050209174770114 9.948673875965916 0
676 0.8022751231400034 9.873052828097094 0
677 0.2450715621842975 14.37068937534882 0
678 0.2450659682254995 5.629311287539765 0
679 0.6767926583762813 9.69553316231381 0
680 0.6588804276901765 9.557079910111703 0
681 0.7765961806398789 9.61030465206025 0
682 0.8793419749768869 9.535925699928633 0
683 0.3697531174199786 4.978851158673098 0
684 0.4981586831957632 4.921869952675983 0
685 0.5025362007956945 8.799124172018907 0
686 0.4071148364743737 8.935764158529405 0
687 0.3697094038604026 15.02135144348119 0
688 0.4981172957599297 15.07829117119608 0
689 0.2451365107639633 5.036848881774834 0
690 0.2451089194452542 14.96328021186676 0
691 0.8741703072080995 10.77494867997423 0
692 0.7405499988378845 10.71537330341719 0
693 0.8663796916297849 10.64042462344253 0
694 0.4212754802400077 9.610790852082138 0
695 0.3954241291635582 9.474315460323602 0
696 0.5332255543501294 9.50583302860673 0
697 0.7074097642526629 9.948158713134342 0
698 0.6996430524386432 9.823863789299605 0
699 0.4935259179324163 9.721724121610997 0
700 0.3557244927458452 9.690206553327869 0
701 0.3697194677364592 15.61566437751728 0
702 0.4979204869913516 15.67474252747665 0
703 0.3697143478618038 4.38420056818395 0
704 0.4979018307976397 4.325074888608004 0
705 0.7175428667852127 10.06302732893418 0
706 0.6149107960838527 10.01383829013669 0
707 0.2451466302157325 15.55576438947032 0
708 0.2451609950498516 4.444181323033064 0
709 0.6189747623970975 10.77494867997418 0
710 0.6111841468187829 10.64042462344248 0
711 0.3697451456366559 16.21003677865513 0
712 0.4976879785497869 16.27128430171771 0
713 0.7425976768116704 17.61268336465349 0
714 0.6178362893587366 17.69633863564388 0
715 0.7425766118192476 2.38745193418453 0
716 0.617807343438646 2.303796055337016 0
717 0.3696731351431426 3.789685131437423 0
718 0.4976139865222246 3.728461753020566 0
719 0.8736136833671748 7.874952118255791 0
720 0.7484629154809643 7.799768527743321 0
721 0.8748492321137895 7.724816409480489 0
722 0.7483296978552196 8.100019797563238 0
723 0.6156525355563321 8.175353230520034 0
724 0.6145502044354623 8.02523766947542 0
725 0.7464931283117489 8.692199998788769 0
726 0.6086904199906308 8.752585488073224 0
727 0.6093989101868151 8.610678935743898 0
728 0.7470374496181944 16.70007836203812 0
729 0.6229285638397165 16.78412377887783 0
730 0.6221864869080251 16.63405146770384 0
731 0.7482783656285944 6.299944133222531 0
732 0.614553789573263 6.374710906399736 0
733 0.6155976181919313 6.224662124373441 0
734 0.7483620101792307 11.29976911641652 0
735 0.6145373303232953 11.37456772554829 0
736 0.6156977219939778 11.22463028842958 0
737 0.7443220423499981 17.30538092014951 0
738 0.619365384500888 17.23806347490565 0
739 0.7483603434949405 11.89992017850571 0
740 0.6145764721275481 11.97471088143967 0
741 0.6156569135061688 11.82463819462703 0
742 0.7479481912273532 14.90005550247065 0
743 0.6239458520980012 14.98899962151551 0
744 0.6229989885142013 14.83895094705092 0
745 0.7482783656296159 13.70005586676099 0
746 0.6155976181936875 13.77533787560953 0
747 0.6145537895750233 13.62528909358408 0
748 0.7443457580875331 2.694802031712038 0
749 0.6194161059124565 2.76215784062326 0
750 0.7477000035716632 4.499920907057835 0
751 0.6227812989619316 4.562679468072783 0
752 0.6236678115536466 4.412606996380745 0
753 0.7473718323004623 3.899778069431108 0
754 0.622462524295696 3.964099260318457 0
755 0.6232983382480128 3.814170040701902 0
756 0.8705780984317414 19.48388509155377 0
757 0.7414967288691974 19.40984671014262 0
758 0.8709186304374561 19.32596161858632 0
759 0.8705780984313969 0.516114908443716 0
760 0.8709186304380275 0.6740342374112165 0
761 0.7414967288694244 0.5901491458562182 0
762 0.8732890857975926 15.87485999559575 0
763 0.7476036128924948 15.79979272485398 0
764 0.8743145270949022 15.72493272925005 0
765 0.8721610794311145 18.8783358550375 0
766 0.7446183087991607 18.80920228839489 0
767 0.8724572293680461 18.73086643335271 0
768 0.8735006639215412 5.325139771469075 0
769 0.8745891018972662 5.475066968348852 0
770 0.7480897658188076 5.400206739831442 0
771 0.8712347993936665 17.8324484586776 0
772 0.8718503994206146 17.98351265160466 0
773 0.7430851988142813 17.91596111029029 0
774 0.8736136833671748 8.024952118256156 0
775 0.8747160144880448 8.175067679300771 0
776 0.8734067454899741 4.72499668936807 0
777 0.8744707702888892 4.875067100827382 0
778 0.7478775157788633 4.800063790209183 0
779 0.8731476863432515 16.62500302542779 0
780 0.8738897632749428 16.77507533660178 0
781 0.8736008092539667 8.625146723227527 0
782 0.8728923190577822 8.767053275556854 0
783 0.873617268504963 6.524996457619266 0
784 0.8747370442366874 6.67504294119297 0
785 0.7483543127416505 6.60003939882253 0
786 0.873617268504963 6.374996457618924 0
787 0.8746610971236313 6.224947675592629 0
788 0.8735006638217766 14.82500341399836 0
789 0.8744475274055765 14.97505208846295 0
790 0.8736399510581598 12.12499643265816 0
791 0.8748563856645222 12.27505014981486 0
792 0.7484963367226821 12.20004658247505 0
793 0.8736008092542741 11.37485327676744 0
794 0.8747612009249566 11.22491583964873 0
795 0.8736399510581598 11.97499643265866 0
796 0.8747203924367806 11.82492374584602 0
797 0.8729591649319943 17.22514601417366 0
798 0.8713628774180038 17.3802349059679 0
799 0.8731476863432515 16.47500302542781 0
800 0.7472809579405071 16.39993555305523 0
801 0.8741332715972556 16.32493252761892 0
802 0.8735006638217766 14.67500341399904 0
803 0.7480897657028835 14.59996030988543 0
804 0.8745891018811068 14.52495689587842 0
805 0.8736172685054758 13.625003542365 0
806 0.8746610971241401 13.77505232439045 0
807 0.8729825493260932 2.774997156345766 0
808 0.8713632087614399 2.619804875359449 0
809 0.8716872007593263 1.71960784313395 0
810 0.8718293886043982 1.866503267970496 0
811 0.7435165893637244 1.786111111108578 0
812 0.8716872007593263 1.569607843134376 0
813 0.7441720911578471 1.488725490194047 0
814 0.8724848903985207 1.419117647056391 0
815 0.8729825493260932 2.924997156345282 0
816 0.8739133400966275 3.075043848310607 0
817 0.7468958894227207 3.000041004663681 0
818 0.8734067454899741 4.574996689368635 0
819 0.8742932580816891 4.424924217676597 0
820 0.8732680091740728 3.974853644518534 0
821 0.8741038231263896 3.824924424901978 0
822 0.8736172685054758 13.47500354236552 0
823 0.7483499119593422 13.39995203467112 0
824 0.8747326434538663 13.3249484923011 0
825 0.6190628631595195 17.99928559944745 0
826 0.6184472631325715 17.84822140652039 0
827 0.8735982418024347 12.87495216513098 0
828 0.7477801589997387 12.79999202751957 0
829 0.874181917197304 12.72503986238616 0
830 0.7490069521024365 7.499621413908338 0
831 0.6157860411670836 7.574244489595401 0
832 0.6150945290419412 7.424233084535719 0
833 0.7477013502990173 15.49993603052561 0
834 0.6236859818227335 15.58721022111204 0
835 0.6227582779319463 15.43728079312936 0
836 0.7481423270479015 5.700063483190466 0
837 0.623148130054142 5.759450512454224 0
838 0.6241840068007731 5.609520965974976 0
839 0.7483616907383683 6.900039377110236 0
840 0.6145611681706153 6.974996892581768 0
841 0.6156735659056219 6.825043397867766 0
842 0.7479714342104304 5.10020687231008 0
843 0.6230216158955036 5.161299513963968 0
844 0.6239917222628515 5.011226843322383 0
845 0.7490383028618262 12.50009001220324 0
846 0.6151184388672855 12.57504031906076 0
847 0.6157929073345036 12.42505060648927 0
848 0.7474223573948482 16.09979252322301 0
849 0.6233764027921412 16.18550414490413 0
850 0.6225322169924782 16.0354316128808 0
851 0.748142327032287 14.29996038103808 0
852 0.6241847873347161 14.3905068756306 0
853 0.6231489106047894 14.24055346490387 0
854 0.747038796011383 3.30004083585823 0
855 0.6221599950211146 3.365984296448557 0
856 0.6229478792029866 3.216031157219332 0
857 0.7483308852563011 13.09990065743554 0
858 0.6156691651241661 13.1749480356272 0
859 0.6145347634727345 13.02495170845605 0
860 0.7430427916622059 2.084150326794232 0
861 0.6183956936015151 2.151895708009854 0
862 0.6190116791481057 2.000751917160747 0
863 0.8721610794311145 19.02833585503817 0
864 0.8709186304374561 19.17596161858591 0
865 0.7430797098685706 19.10429747362743 0
866 0.8721610794317191 0.9715686274493709 0
867 0.7430797098697466 0.8956028648621353 0
868 0.8709186304380275 0.8240342374109546 0
869 0.874157719988647 7.424805004420467 0
870 0.8748492321137895 7.574816409480148 0
871 0.8733868232041151 15.27500330126644 0
872 0.7478343506096916 15.20005538973909 0
873 0.8744475274055765 15.12505208846259 0
874 0.8735006639215412 5.175139771468809 0
875 0.8744707702888892 5.025067100827224 0
876 0.8716634913044187 18.28039215685684 0
877 0.7435138907250334 18.2139048084692 0
878 0.8718503994206146 18.13351265160498 0
879 0.8735532251506352 5.774996514828538 0
880 0.8745891018972662 5.625066968349291 0
881 0.8561511808176852 9.07196753695405 0
882 0.7290434998754673 8.989020812514763 0
883 0.8728923190577822 8.917053275557382 0
884 0.8736246465016808 7.124996435907821 0
885 0.874157719988647 7.274805004420031 0
886 0.7477823664903279 7.199801440336447 0
887 0.8736246465016808 6.974996435907382 0
888 0.8747370442366874 6.825042941193381 0
889 0.8735532251506352 5.924996514828976 0
890 0.8746610971236313 6.074947675592238 0
891 0.7482143222742665 5.999944190432974 0
892 0.8736008092539667 8.475146723227109 0
893 0.7483168237420115 8.400214402533646 0
894 0.8747160144880448 8.325067679301315 0
895 0.8716634913044187 18.43039215685751 0
896 0.8724572293680461 18.58086643335204 0
897 0.7441207206724649 18.51125859021558 0
898 0.8736008092542741 11.52485327676727 0
899 0.8747203924367806 11.67492374584619 0
900 0.7483212016910548 11.59977702261415 0
901 0.8733868232041151 15.42500330126696 0
902 0.8743145270949022 15.57493272924964 0
903 0.8741703072080995 10.92494867997421 0
904 0.8747612009249566 11.07491583964867 0
905 0.7489315081330561 10.99986451962335 0
906 0.8729591649319943 17.07514601417361 0
907 0.7468489282069372 17.00022135078369 0
908 0.8738897632749428 16.92507533660203 0
909 0.8712347993936665 17.68244845867763 0
910 0.8713628774180038 17.53023490596788 0
911 0.8735532251511802 14.22500348515216 0
912 0.8745891018811068 14.37495689587889 0
913 0.874181917197304 12.57503986238616 0
914 0.8748563856645222 12.42505014981466 0
915 0.8721610794317191 1.121568627449106 0
916 0.8724848903985207 1.269117647056861 0
917 0.7446459698302399 1.190686274508307 0
918 0.8735532251511802 14.07500348515248 0
919 0.7482143222753203 14.00005580954889 0
920 0.8746610971241401 13.92505232439003 0
921 0.8732890857975926 16.02485999559561 0
922 0.8741332715972556 16.17493252761894 0
923 0.8712134030578077 2.167647058819072 0
924 0.8718293886043982 2.016503267969965 0
925 0.8712134030578077 2.317647058818665 0
926 0.8713632087614399 2.469804875359856 0
927 0.8731254559147555 3.524996987538922 0
928 0.8741038231263896 3.674924424902471 0
929 0.7472292790411451 3.599921412451003 0
930 0.8732680091740728 4.124853644518014 0
931 0.8742932580816891 4.27492421767708 0
932 0.7475612672557619 4.19977786220673 0
933 0.8731254559147555 3.374996987539387 0
934 0.8739133400966275 3.225043848310162 0
935 0.8735982418024347 13.02495216513046 0
936 0.8747326434538663 13.17494849230162 0
937 0.8705780984317414 19.63388509155435 0
938 0.8705780984313969 0.3661149084440603 0
939 0.8561511808176852 9.221967536954661 0
940 0.2452299961990529 16.14822665543447 0
941 0.2451721537364233 3.851568128918434 0
942 0.6189790244205012 1.851823356521138 0
943 0.6188368365754293 1.704927931684591 0
944 0.1201334371597865 14.46711260876897 0
945 0.1201334371597865 14.61417143229839 0
946 0.1202321654460162 4.795632592655549 0
947 0.1202321654460162 4.94269141618496 0
948 0.1273566770271229 1.838235294117646 0
949 0.1273566770271229 1.985294117647057 0
950 0.1273566770271232 12.72058823529411 0
951 0.1273566770271232 12.86764705882353 0
952 0.1203397943898463 4.205341318897867 0
953 0.1203397943898463 4.352400142427278 0
954 0.1273566770271229 13.30882352941176 0
955 0.1273566770271229 13.45588235294117 0
956 0.1273566770271229 12.13235294117646 0
957 0.1273566770271229 12.27941176470587 0
958 0.1264964987693311 1.544117647058822 0
959 0.1264964987693311 1.691176470588234 0
960 0.1204786200215194 3.615145397995738 0
961 0.1204786200215194 3.762204221525149 0
962 0.120673138949968 3.025044824333722 0
963 0.120673138949968 3.172103647863135 0
964 0.1224978596416198 2.133080303315711 0
965 0.1224978596416198 2.280139126845124 0
966 0.1273566770271229 1.249999999999999 0
967 0.1273566770271229 1.39705882352941 0
968 0.1200400595150325 13.87701193745403 0
969 0.1200400595150325 14.02407076098345 0
970 0.1264698673483939 0.955947713082384 0
971 0.1264698673483939 1.103006536611796 0
972 0.1208733236940913 2.430834761070749 0
973 0.1208733236940913 2.57789358460016 0
974 0.1202110791679779 15.05740391043329 0
975 0.1202110791679779 15.2044627339627 0
976 0.1238995613925775 0.6632712309931568 0
977 0.1238995613925775 0.810330054522568 0
978 0.1273566770271229 11.54411764705883 0
979 0.1273566770271229 11.69117647058824 0
980 0.1338535051433858 10.38120532950885 0
981 0.1338535051433858 10.52826415303826 0
982 0.120348013008628 15.6475045327182 0
983 0.120348013008628 15.79456335624761 0
984 0.1208733236933902 17.42210641539862 0
985 0.1208733236933902 17.56916523892804 0
986 0.1203902369877775 10.97592923901549 0
987 0.1203902369877775 11.12298806254491 0
988 0.1205020144417703 16.23770045549182 0
989 0.1205020144417703 16.38475927902122 0
990 0.1206579291453196 16.82799167314308 0
991 0.1206579291453196 16.97505049667249 0
992 0.120128753845276 5.385828567698161 0
993 0.120128753845276 5.532887391227574 0
994 0.1273566770271229 18.01470588235293 0
995 0.1273566770271229 18.16176470588234 0
996 0.1273566770271236 7.720588235294112 0
997 0.1273566770271236 7.867647058823525 0
998 0.1273566770271232 6.544117647058821 0
999 0.1273566770271232 6.691176470588232 0
1000 0.1200400595146681 5.975929239013659 0
1001 0.1200400595146681 6.122988062543071 0
1002 0.1273566770271236 8.308823529411761 0
1003 0.1273566770271236 8.455882352941172 0
1004 0.1225192559775609 17.71986087315467 0
1005 0.1225192559775609 17.86691969668408 0
1006 0.1238995613923061 19.18966994547745 0
1007 0.1238995613923061 19.33672876900687 0
1008 0.1417370275267183 9.495518994840682 0
1009 0.1417370275267183 9.642577818370093 0
1010 0.1273566770271232 7.132352941176467 0
1011 0.1273566770271232 7.279411764705879 0
1012 0.1273566770271264 18.30882352941177 0
1013 0.1273566770271264 18.45588235294118 0
1014 0.1403767366115277 8.883936904907028 0
1015 0.1403767366115277 9.030995728436441 0
1016 0.1272251069417231 9.189388821577648 0
1017 0.1272251069417231 9.336447645107059 0
1018 0.1273566770271229 18.60294117647059 0
1019 0.1273566770271229 18.75 0
1020 0.1264698673482667 18.89699346338819 0
1021 0.1264698673482667 19.0440522869176 0
1022 0.3697076780563271 3.195443897944435 0
1023 0.4968856023644581 3.130882895122425 0
1024 0.3696967297100933 16.80468717423839 0
1025 0.4968705768044598 16.86924421216398 0
1026 0.4937762309245458 2.220397645703531 0
1027 0.6189303628053603 18.29509021338939 0
1028 0.6191172709215562 18.14821070813753 0
1029 0.4938139537039749 17.77966312480104 0
1030 0.253853175796454 1.76470588235294 0
1031 0.2498545366687427 2.059550891551006 0
1032 0.253853175796454 1.470588235294116 0
1033 0.2538265443755168 1.176535948376502 0
1034 0.2433711833357111 2.358032711445285 0
1035 0.2503694287409715 0.8839248264284829 0
1036 0.2433925796709511 17.6419672885533 0
1037 0.2547133540542492 18.23529411764705 0
1038 0.2498759330046837 17.94044910844878 0
1039 0.2676018435532508 9.10273749119056 0
1040 0.2503694287405728 19.11607517357153 0
1041 0.2689621344684413 9.420201934065389 0
1042 0.2547133540542492 18.52941176470589 0
1043 0.2538265443753895 18.82346405162349 0
1044 0.1138052581241054 9.794007710484937 0
1045 0.8793419749768869 9.38592569992802 0
1046 0.6201871589308359 1.558420769953127 0
1047 0.6209848485700303 1.407930573875142 0
1048 0.4943319263598105 1.91956873773676 0
1049 0.6209561096590878 18.59219000561076 0
1050 0.6201623715954602 18.44171572911623 0
1051 0.4944793352398465 18.08047100436764 0
1052 0.2452530140629295 3.259159559601992 0
1053 0.1284500127235837 0.3603395754016241 0
1054 0.1284500127235837 0.5073983989310362 0
1055 0.1284500127239388 19.49260160106891 0
1056 0.1284500127239388 19.63966042459833 0
1057 0.2452621091327906 16.74089406460499 0
1058 0.6199549366563761 18.8879598748291 0
1059 0.6202510865933079 18.74049045314431 0
1060 0.6210940226773327 1.260328541296065 0
1061 0.620770211710531 1.11277952168831 0
1062 0.4957657517919831 18.37602162878457 0
1063 0.4956495939876126 1.624133015365687 0
1064 0.6188663163623757 19.18119586832836 0
1065 0.6201087653560342 19.03357010478062 0
1066 0.6201087653570836 0.9663176523466143 0
1067 0.6188663163633921 0.8187832623081979 0
1068 0.4962927375163032 18.67094759204496 0
1069 0.6189886067149849 19.4831532369184 0
1070 0.6193291387206996 19.32522976395095 0
1071 0.6193291387211683 0.6747654013816258 0
1072 0.6189886067145378 0.5168460724141253 0
1073 0.6208336125841922 2.914892742566773 0
1074 0.4971090904503215 1.330023821055145 0
1075 0.6207909411716805 17.08534178406985 0
1076 0.2449121036455833 17.33898446076651 0
1077 0.2449425791772744 2.661092103258832 0
1078 0.6215925336981528 16.48571570986881 0
1079 0.6217215395146289 16.93527110649827 0
1080 0.6217644033547265 3.064939434532098 0
1081 0.6215449273153569 3.514213124769667 0
1082 0.6217952864997549 4.112245754433989 0
1083 0.6220444767117749 4.710706899562783 0
1084 0.6218381180611129 15.88732503121859 0
1085 0.622523294526991 3.664140562133216 0
1086 0.6225781189521569 16.33564521205992 0
1087 0.6222031727027734 14.69109747732682 0
1088 0.6228205354073713 4.262316327593055 0
1089 0.6451340750061647 6.526712024360267 0
1090 0.6451331948507383 13.47328626232767 0
1091 0.6228635593584226 15.7373977648729 0
1092 0.4965568182041766 1.035959919134373 0
1093 0.4957415431501813 18.96485826953003 0
1094 0.6451522678931088 7.874260314779358 0
1095 0.6451851623559948 12.12553696553908 0
1096 0.6222071175647913 5.30909771975876 0
1097 0.6220057942716201 15.28934693941966 0
1098 0.6230664984730816 15.13939572661581 0
1099 0.62310850151069 4.860777311022096 0
1100 0.6440824338080209 8.470588450600154 0
1101 0.6451109934255914 11.52645916668503 0
1102 0.6463878166397234 7.724124606004056 0
1103 0.6232955555405163 5.459024916638537 0
1104 0.6232916107621035 14.5410509592062 0
1105 0.6269983045659423 5.917282558291429 0
1106 0.6269984483761266 14.0827178362721 0
1107 0.6281061765389384 6.06723371905469 0
1108 0.6253814761843967 11.06618279900516 0
1109 0.6281063203490865 13.93276667550964 0
1110 0.6455838930707326 12.72445003259661 0
1111 0.6450002176758634 12.87436233534144 0
1112 0.6450271213496168 7.125430666629734 0
1113 0.646230576608098 11.67652963576396 0
1114 0.6451976390420989 8.320509406674358 0
1115 0.6462538507378891 6.676758507933972 0
1116 0.6462485697991287 13.32323121226325 0
1117 0.6464015969623571 12.27559068269578 0
1118 0.4963581942085055 0.7454801888661049 0
1119 0.4963581942081632 19.25450239510415 0
1120 0.645560194836583 7.275239235141943 0
1121 0.1240692554831831 2.877316165717493 0
1122 0.1240692554831831 2.730257342188082 0
1123 0.1240387799521931 17.12276039830906 0
1124 0.1240387799521931 17.26981922183847 0
1125 0.9050209174770114 10.04867387596592 0
1126 0.124604179987471 16.53054945028543 0
1127 0.124604179987471 16.67760827381485 0
1128 0.1245798751129614 3.469408852915326 0
1129 0.1245798751129614 3.322350029385915 0
1130 0.1264846275564176 10.68647965112959 0
1131 0.1264846275564176 10.833538474659 0
1132 0.124693533714904 4.0599521426874 0
1133 0.124693533714904 3.912893319157988 0
1134 0.1247279817572826 15.93993796464853 0
1135 0.1247279817572826 16.08699678817794 0
1136 0.1248212006600053 4.650604710017548 0
1137 0.1248212006600053 4.503545886488136 0
1138 0.1247986172071045 15.34943632734035 0
1139 0.1247986172071045 15.49649515086977 0
1140 0.1248978402772763 14.75881747790406 0
1141 0.1248978402772763 14.90587630143347 0
1142 0.124904345317947 5.09415746558987 0
1143 0.124904345317947 5.241216289119282 0
1144 0.1249381250245109 14.16828264893279 0
1145 0.1249381250245109 14.3153414724622 0
1146 0.1249372143802235 5.684659190429835 0
1147 0.1249372143802235 5.831718013959247 0
1148 0.6834285616462625 0.100865349463971 0
1149 0.5584285616459383 0.100865349463971 0
1150 0.5584285616486705 19.899134650536 0
1151 0.6834285616478135 19.899134650536 0
1152 0.09766665152234054 13.60134185067524 0
1153 0.09766665152234054 13.74840067420465 0
1154 0.09773668701678431 11.39865814932394 0
1155 0.09773668701678431 11.25159932579453 0
1156 0.09766665152201826 6.398658149322499 0
1157 0.09766665152201826 6.251599325793087 0
1158 0.1007063029143 8.599776176425415 0
1159 0.1007063029143 8.746834999954828 0
1160 0.09912997502472679 11.98406053681492 0
1161 0.09912997502472679 11.83700171328551 0
1162 0.09912997502450693 8.015939463184395 0
1163 0.09912997502450693 8.162998286713806 0
1164 0.09912997514490919 13.01588226160594 0
1165 0.09912997514490919 13.16294108513535 0
1166 0.0991299751446362 6.837058914863338 0
1167 0.0991299751446362 6.984117738392749 0
1168 0.09913003262150817 7.573415027786981 0
1169 0.09913003262150817 7.426356204257568 0
1170 0.09912997514484552 12.42647067956997 0
1171 0.09912997514484552 12.57352950309938 0
1172 0.2523495741161612 0.5824343358065462 0
1173 0.2523495741162448 19.41756566419343 0
1174 0.6247905824675397 10.91621563933069 0
1175 0.3160656553750337 19.89619349649778 0
1176 0.4410656553755435 19.89619349649778 0
1177 0.4410656553728293 0.1038065035022908 0
1178 0.3160656553731888 0.1038065035022908 0
1179 0.2555422856508236 9.730703175913856 0
1180 0.3723100696757184 0.6698847479040999 0
1181 0.3718472473179421 0.813902608830672 0
1182 0.3723100696755496 19.33011456142906 0
1183 0.3718472473172257 19.18608066580647 0
1184 0.3744175532737585 0.9595202673904879 0
1185 0.3744175532731863 19.04046300724662 0
1186 0.1144025806509827 10.22534453422706 0
1187 0.3750789996272059 1.105982136732183 0
1188 0.3759658093059348 1.252975600120386 0
1189 0.3751505342523845 18.74785931390691 0
1190 0.3742637245735284 18.8948527772951 0
1191 0.380912208578563 9.31524411058998 0
1192 0.6228892806805312 9.035559496460444 0
1193 0.6396304189206283 8.880645235063778 0
1194 0.3758566351986324 1.400577632699463 0
1195 0.3749964569408407 1.547636456228875 0
1196 0.526457821313181 10.07492278525536 0
1197 0.516324718780631 9.960054169455519 0
1198 0.3758555573181679 18.45250004284395 0
1199 0.3758555573181644 18.59955886637336 0
1200 0.3768605210067246 0.5140119158419792 0
1201 0.3768605210071823 19.48598739349111 0
1202 0.3736461345854342 1.69414361796034 0
1203 0.3745063128432259 1.841202441489751 0
1204 0.3746235485280645 18.15881570358767 0
1205 0.374623548528068 18.3058745271171 0
1206 0.910801332015911 19.90660394841807 0
1207 0.910801332015911 19.7566039484174 0
1208 0.9108013320155319 0.2433960515813077 0
1209 0.9108013320155319 0.09339605158160627 0
1210 0.3697317197164658 17.86210440922874 0
1211 0.3745691407660278 18.00989059489759 0
1212 0.3745389675708304 1.99013100212936 0
1213 0.3696801501853273 2.137917187798014 0
1214 0.3690918000224581 2.289817535125177 0
1215 0.3691207459426309 17.71022163835223 0
1216 0.08890313361935449 0.09282921578078299 0
1217 0.08890313361935449 0.2398880393101942 0
1218 0.0889031336197945 19.76011196068981 0
1219 0.0889031336197945 19.90717078421922 0
1220 0.5819272994889408 9.770639047351057 0
1221 0.5373427979416264 10.20122652134384 0
1222 0.4387567206384049 10.14744240066267 0
1223 0.3277927233432322 9.841636445442713 0
1224 0.4994942170200758 0.2046718529662619 0
1225 0.4994942170221525 19.79532814703378 0
1226 0.2173531463429382 0.3061099676529958 0
1227 0.2173531463437333 19.69389003234696 0
1228 0.3691978424544626 9.035032936729896 0
1229 0.3560462127846579 9.193426029871105 0
1230 0.4955592057057809 9.026452697209951 0
1231 0.3195156680970671 0.3170872553745037 0
1232 0.2799687889928378 0.1966357192830738 0
1233 0.3195156680984516 19.68291274462552 0
1234 0.2799687889943073 19.803364280717 0
1235 0.2139031336203155 19.90717078421922 0
1236 0.2139031336190599 0.09282921578078299 0
1237 0.2482560857943685 10.31243221667708 0
1238 0.785801332015202 0.09339605158160627 0
1239 0.7858013320160848 19.90660394841807 0
1240 0.7813794304476523 19.6904890399731 0
1241 0.7813794304469288 0.3095109600259651 0
1242 0.8144238545446656 10.09601439168888 0
1243 0.7219248863758554 10.16169396869123 0
1244 0.3392234292844079 10.21515877907322 0
1245 0.6262457554595153 10.5274485129384 0
1246 0.377836580016154 19.59975937454372 0
1247 0.440452222666728 19.70923362291376 0
1248 0.4404522226651229 0.2907662389528108 0
1249 0.3778365800152231 0.4002404873227329 0
1250 0.4279233372241066 9.911139243715457 0
1251 0.5163763119947782 9.85005474859679 0
1252 0.6419937678612597 10.23802870264907 0
1253 0.5542926671864836 10.31054831805638 0
1254 0.4977970755747804 0.4876908994202864 0
1255 0.4977970755754588 19.51230827177935 0
1256 0.6790066600793812 19.68301974209103 0
1257 0.7192298936635506 19.80573859895407 0
1258 0.6790066600779894 0.3169802579083299 0
1259 0.7192298936621244 0.1942614010455773 0
1260 0.358674353776811 10.37101957435502 0
1261 0.6199646657230363 0.4030746438948788 0
1262 0.6199646657239566 19.59692521797101 0
1263 0.5578151289382319 0.287825084914491 0
1264 0.557815128939855 19.71217477695198 0
1265 0.4846869124631557 10.37389695787124 0
1266 0.5893378823827889 10.41069913917646 0
$EndNodes
$Elements
570
1 8 2 1 1 1 8 11
2 8 2 1 1 8 9 12
3 8 2 1 1 9 10 13
4 8 2 1 1 10 2 14
5 8 2 3 3 3 7 80
6 8 2 2 5 4 146 149
7 8 2 2 5 146 147 150
8 8 2 2 5 147 148 151
9 8 2 2 5 148 5 152
10 9 2 4 1 463 308 465 497 498 499
11 9 2 4 1 310 464 467 500 501 502
12 9 2 4 1 388 463 465 503 499 504
13 9 2 4 1 464 361 467 505 506 501
14 9 2 4 1 309 449 466 507 508 509
15 9 2 4 1 449 410 466 510 511 508
16 9 2 4 1 425 355 486 512 513 514
17 9 2 4 1 305 459 460 515 516 517
18 9 2 4 1 458 304 461 518 519 520
19 9 2 4 1 384 458 461 521 520 522
20 9 2 4 1 459 376 460 523 524 516
21 9 2 4 1 373 314 476 525 526 527
22 9 2 4 1 378 313 475 528 529 530
23 9 2 4 1 312 390 474 531 532 533
24 9 2 4 1 315 369 477 534 535 536
25 9 2 4 1 314 373 469 525 537 538
26 9 2 4 1 390 312 468 531 539 540
27 9 2 4 1 313 378 470 528 541 542
28 9 2 4 1 369 315 471 534 543 544
29 9 2 4 1 6 425 486 545 514 546
30 9 2 4 1 454 398 456 547 548 549
31 9 2 4 1 302 454 456 550 549 551
32 9 2 4 1 365 318 472 552 553 554
33 9 2 4 1 317 386 473 555 556 557
34 9 2 4 1 455 303 457 558 559 560
35 9 2 4 1 363 455 457 561 560 562
36 9 2 4 1 386 317 480 555 563 564
37 9 2 4 1 318 365 481 552 565 566
38 9 2 4 1 402 316 478 567 568 569
39 9 2 4 1 319 371 479 570 571 572
40 9 2 4 1 371 319 483 570 573 574
41 9 2 4 1 316 402 482 567 575 576
42 9 2 4 1 434 81 487 577 578 579
43 9 2 4 1 380 451 452 580 581 582
44 9 2 4 1 318 408 472 583 584 553
45 9 2 4 1 451 301 452 585 586 581
46 9 2 4 1 450 400 453 587 588 589
47 9 2 4 1 300 450 453 590 589 591
48 9 2 4 1 408 318 484 583 592 593
49 9 2 4 1 316 405 478 594 595 568
50 9 2 4 1 405 317 473 596 557 597
51 9 2 4 1 317 405 485 596 598 599
52 9 2 4 1 405 316 485 594 600 598
53 9 2 4 1 408 319 479 601 572 602
54 9 2 4 1 319 408 484 601 593 603
55 9 2 4 1 382 381 438 604 605 606
56 9 2 4 1 391 392 437 607 608 609
57 9 2 4 1 367 445 447 610 611 612
58 9 2 4 1 446 396 448 613 614 615
59 9 2 4 1 445 299 447 616 617 611
60 9 2 4 1 312 402 468 618 619 539
61 9 2 4 1 371 314 469 620 538 621
62 9 2 4 1 298 446 448 622 615 623
63 9 2 4 1 315 365 471 624 625 543
64 9 2 4 1 386 313 470 626 542 627
65 9 2 4 1 402 312 482 618 628 575
66 9 2 4 1 314 371 483 620 574 629
67 9 2 4 1 365 315 481 624 630 565
68 9 2 4 1 313 386 480 626 564 631
69 9 2 4 1 81 409 487 632 633 578
70 9 2 4 1 46 3 352 79 634 635
71 9 2 4 1 441 392 443 636 637 638
72 9 2 4 1 343 418 439 639 640 641
73 9 2 4 1 382 442 444 642 643 644
74 9 2 4 1 308 390 465 645 646 498
75 9 2 4 1 378 309 466 647 509 648
76 9 2 4 1 373 310 467 649 502 650
77 9 2 4 1 296 441 443 651 638 652
78 9 2 4 1 7 81 434 113 577 653
79 9 2 4 1 442 297 444 654 655 643
80 9 2 4 1 390 308 474 645 656 532
81 9 2 4 1 369 311 477 657 658 535
82 9 2 4 1 309 378 475 647 530 659
83 9 2 4 1 310 373 476 649 527 660
84 9 2 4 1 295 382 438 661 606 662
85 9 2 4 1 392 294 437 663 664 608
86 9 2 4 1 306 410 449 665 510 666
87 9 2 4 1 343 439 462 641 667 668
88 9 2 4 1 410 306 488 665 669 670
89 9 2 4 1 304 388 461 671 672 519
90 9 2 4 1 361 305 460 673 517 674
91 9 2 4 1 3 287 352 675 676 634
92 9 2 4 1 388 304 463 671 677 503
93 9 2 4 1 305 361 464 673 505 678
94 9 2 4 1 352 356 418 679 680 681
95 9 2 4 1 46 352 418 635 681 682
96 9 2 4 1 376 302 456 683 551 684
97 9 2 4 1 311 369 496 657 685 686
98 9 2 4 1 303 384 457 687 688 559
99 9 2 4 1 302 376 459 683 523 689
100 9 2 4 1 384 303 458 687 690 521
101 9 2 4 1 82 341 409 691 692 693
102 9 2 4 1 81 82 409 114 693 632
103 9 2 4 1 356 307 439 694 695 696
104 9 2 4 1 352 287 353 676 697 698
105 9 2 4 1 307 356 493 694 699 700
106 9 2 4 1 301 363 452 701 702 586
107 9 2 4 1 398 300 453 703 591 704
108 9 2 4 1 353 287 354 697 705 706
109 9 2 4 1 363 301 455 701 707 561
110 9 2 4 1 300 398 454 703 547 708
111 9 2 4 1 409 341 410 692 709 710
112 9 2 4 1 299 380 447 711 712 617
113 9 2 4 1 381 327 438 713 714 605
114 9 2 4 1 326 391 437 715 609 716
115 9 2 4 1 400 298 448 717 623 718
116 9 2 4 1 40 351 407 719 720 721
117 9 2 4 1 351 364 365 722 723 724
118 9 2 4 1 347 368 369 725 726 727
119 9 2 4 1 333 366 367 728 729 730
120 9 2 4 1 372 344 373 731 732 733
121 9 2 4 1 377 345 378 734 735 736
122 9 2 4 1 329 381 382 737 604 738
123 9 2 4 1 385 348 386 739 740 741
124 9 2 4 1 339 383 384 742 743 744
125 9 2 4 1 346 389 390 745 746 747
126 9 2 4 1 391 328 392 748 749 607
127 9 2 4 1 397 336 398 750 751 752
128 9 2 4 1 399 334 400 753 754 755
129 9 2 4 1 111 321 357 756 757 758
130 9 2 4 1 320 16 358 759 760 761
131 9 2 4 1 99 335 362 762 763 764
132 9 2 4 1 109 323 359 765 766 767
133 9 2 4 1 338 32 360 768 769 770
134 9 2 4 1 327 106 374 771 772 773
135 9 2 4 1 351 41 364 774 775 722
136 9 2 4 1 336 30 375 776 777 778
137 9 2 4 1 333 102 366 779 780 728
138 9 2 4 1 347 43 368 781 782 725
139 9 2 4 1 344 36 370 783 784 785
140 9 2 4 1 35 344 372 786 731 787
141 9 2 4 1 339 96 383 788 789 742
142 9 2 4 1 348 87 404 790 791 792
143 9 2 4 1 84 345 377 793 734 794
144 9 2 4 1 86 348 385 795 739 796
145 9 2 4 1 329 104 381 797 798 737
146 9 2 4 1 101 333 379 799 800 801
147 9 2 4 1 95 339 387 802 803 804
148 9 2 4 1 346 92 389 805 806 745
149 9 2 4 1 23 328 391 807 748 808
150 9 2 4 1 324 20 393 809 810 811
151 9 2 4 1 19 324 394 812 813 814
152 9 2 4 1 328 24 395 815 816 817
153 9 2 4 1 29 336 397 818 750 819
154 9 2 4 1 27 334 399 820 753 821
155 9 2 4 1 91 346 401 822 823 824
156 9 2 4 1 327 374 435 773 825 826
157 9 2 4 1 89 350 403 827 828 829
158 9 2 4 1 406 407 408 830 831 832
159 9 2 4 1 337 362 363 833 834 835
160 9 2 4 1 360 340 361 836 837 838
161 9 2 4 1 370 349 371 839 840 841
162 9 2 4 1 375 338 376 842 843 844
163 9 2 4 1 404 403 405 845 846 847
164 9 2 4 1 335 379 380 848 849 850
165 9 2 4 1 342 387 388 851 852 853
166 9 2 4 1 395 332 396 854 855 856
167 9 2 4 1 350 401 402 857 858 859
168 9 2 4 1 393 326 436 860 861 862
169 9 2 4 1 323 110 357 863 864 865
170 9 2 4 1 17 322 358 866 867 868
171 9 2 4 1 406 39 407 869 870 830
172 9 2 4 1 97 337 383 871 872 873
173 9 2 4 1 31 338 375 874 842 875
174 9 2 4 1 107 325 374 876 877 878
175 9 2 4 1 33 340 360 879 836 880
176 9 2 4 1 44 343 368 881 882 883
177 9 2 4 1 349 38 406 884 885 886
178 9 2 4 1 37 349 370 887 839 888
179 9 2 4 1 340 34 372 889 890 891
180 9 2 4 1 42 347 364 892 893 894
181 9 2 4 1 325 108 359 895 896 897
182 9 2 4 1 345 85 385 898 899 900
183 9 2 4 1 337 98 362 901 902 833
184 9 2 4 1 341 83 377 903 904 905
185 9 2 4 1 103 329 366 906 907 908
186 9 2 4 1 105 327 381 909 713 910
187 9 2 4 1 342 94 387 911 912 851
188 9 2 4 1 88 403 404 913 845 914
189 9 2 4 1 322 18 394 915 916 917
190 9 2 4 1 93 342 389 918 919 920
191 9 2 4 1 335 100 379 921 922 848
192 9 2 4 1 21 326 393 923 860 924
193 9 2 4 1 326 22 391 925 926 715
194 9 2 4 1 332 26 399 927 928 929
195 9 2 4 1 334 28 397 930 931 932
196 9 2 4 1 25 332 395 933 854 934
197 9 2 4 1 350 90 401 935 936 857
198 9 2 4 1 111 112 321 144 937 756
199 9 2 4 1 15 16 320 48 759 938
200 9 2 4 1 39 40 407 72 721 870
201 9 2 4 1 97 98 337 130 901 871
202 9 2 4 1 109 110 323 142 863 765
203 9 2 4 1 31 32 338 64 768 874
204 9 2 4 1 88 89 403 121 829 913
205 9 2 4 1 107 108 325 140 895 876
206 9 2 4 1 44 45 343 77 939 881
207 9 2 4 1 37 38 349 70 884 887
208 9 2 4 1 33 34 340 66 889 879
209 9 2 4 1 42 43 347 75 781 892
210 9 2 4 1 40 41 351 73 774 719
211 9 2 4 1 35 36 344 68 783 786
212 9 2 4 1 103 104 329 136 797 906
213 9 2 4 1 93 94 342 126 911 918
214 9 2 4 1 82 83 341 115 903 691
215 9 2 4 1 17 18 322 50 915 866
216 9 2 4 1 21 22 326 54 925 923
217 9 2 4 1 101 102 333 134 779 799
218 9 2 4 1 105 106 327 138 771 909
219 9 2 4 1 19 20 324 52 809 812
220 9 2 4 1 99 100 335 132 921 762
221 9 2 4 1 84 85 345 117 898 793
222 9 2 4 1 25 26 332 58 927 933
223 9 2 4 1 23 24 328 56 815 807
224 9 2 4 1 86 87 348 119 790 795
225 9 2 4 1 91 92 346 124 805 822
226 9 2 4 1 27 28 334 60 930 820
227 9 2 4 1 89 90 350 122 935 827
228 9 2 4 1 29 30 336 62 776 818
229 9 2 4 1 95 96 339 128 788 802
230 9 2 4 1 110 111 357 143 758 864
231 9 2 4 1 16 17 358 49 868 760
232 9 2 4 1 96 97 383 129 873 789
233 9 2 4 1 98 99 362 131 764 902
234 9 2 4 1 30 31 375 63 875 777
235 9 2 4 1 106 107 374 139 878 772
236 9 2 4 1 85 86 385 118 796 899
237 9 2 4 1 87 88 404 120 914 791
238 9 2 4 1 32 33 360 65 880 769
239 9 2 4 1 102 103 366 135 908 780
240 9 2 4 1 94 95 387 127 804 912
241 9 2 4 1 41 42 364 74 894 775
242 9 2 4 1 83 84 377 116 794 904
243 9 2 4 1 43 44 368 76 883 782
244 9 2 4 1 38 39 406 71 869 885
245 9 2 4 1 108 109 359 141 767 896
246 9 2 4 1 36 37 370 69 888 784
247 9 2 4 1 34 35 372 67 787 890
248 9 2 4 1 92 93 389 125 920 806
249 9 2 4 1 104 105 381 137 910 798
250 9 2 4 1 18 19 394 51 814 916
251 9 2 4 1 22 23 391 55 808 926
252 9 2 4 1 28 29 397 61 819 931
253 9 2 4 1 100 101 379 133 801 922
254 9 2 4 1 24 25 395 57 934 816
255 9 2 4 1 20 21 393 53 924 810
256 9 2 4 1 26 27 399 59 821 928
257 9 2 4 1 90 91 401 123 824 936
258 9 2 4 1 380 299 451 711 940 580
259 9 2 4 1 298 400 450 717 587 941
260 9 2 4 1 324 393 432 811 942 943
261 9 2 4 1 170 171 304 204 944 945
262 9 2 4 1 236 237 302 270 946 947
263 9 2 4 1 246 247 292 280 948 949
264 9 2 4 1 176 177 316 210 950 951
265 9 2 4 1 238 239 300 272 952 953
266 9 2 4 1 174 175 312 208 954 955
267 9 2 4 1 178 179 317 212 956 957
268 9 2 4 1 247 248 411 281 958 959
269 9 2 4 1 240 241 298 274 960 961
270 9 2 4 1 242 243 296 276 962 963
271 9 2 4 1 245 246 413 279 964 965
272 9 2 4 1 248 249 290 282 966 967
273 9 2 4 1 172 173 308 206 968 969
274 9 2 4 1 249 250 412 283 970 971
275 9 2 4 1 244 245 294 278 972 973
276 9 2 4 1 168 169 303 202 974 975
277 9 2 4 1 250 251 288 284 976 977
278 9 2 4 1 180 181 313 214 978 979
279 9 2 4 1 184 185 306 218 980 981
280 9 2 4 1 166 167 301 200 982 983
281 9 2 4 1 160 161 295 194 984 985
282 9 2 4 1 182 183 309 216 986 987
283 9 2 4 1 164 165 299 198 988 989
284 9 2 4 1 162 163 297 196 990 991
285 9 2 4 1 234 235 305 268 992 993
286 9 2 4 1 158 159 293 192 994 995
287 9 2 4 1 226 227 318 260 996 997
288 9 2 4 1 230 231 314 264 998 999
289 9 2 4 1 232 233 310 266 1000 1001
290 9 2 4 1 224 225 315 258 1002 1003
291 9 2 4 1 159 160 414 193 1004 1005
292 9 2 4 1 154 155 289 188 1006 1007
293 9 2 4 1 220 221 307 254 1008 1009
294 9 2 4 1 228 229 319 262 1010 1011
295 9 2 4 1 157 158 416 191 1012 1013
296 9 2 4 1 222 223 311 256 1014 1015
297 9 2 4 1 221 222 415 255 1016 1017
298 9 2 4 1 156 157 291 190 1018 1019
299 9 2 4 1 155 156 417 189 1020 1021
300 9 2 4 1 396 296 443 1022 652 1023
301 9 2 4 1 297 367 444 1024 1025 655
302 9 2 4 1 436 326 437 861 716 1026
303 9 2 4 1 374 325 433 877 1027 1028
304 9 2 4 1 327 435 438 826 1029 714
305 9 2 4 1 292 247 411 948 959 1030
306 9 2 4 1 246 292 413 949 1031 964
307 9 2 4 1 248 290 411 967 1032 958
308 9 2 4 1 290 249 412 966 971 1033
309 9 2 4 1 294 245 413 972 965 1034
310 9 2 4 1 250 288 412 977 1035 970
311 9 2 4 1 160 295 414 985 1036 1004
312 9 2 4 1 158 293 416 995 1037 1012
313 9 2 4 1 293 159 414 994 1005 1038
314 9 2 4 1 222 311 415 1015 1039 1016
315 9 2 4 1 289 155 417 1006 1021 1040
316 9 2 4 1 307 221 415 1008 1017 1041
317 9 2 4 1 291 157 416 1018 1013 1042
318 9 2 4 1 156 291 417 1019 1043 1020
319 9 2 4 1 6 220 425 253 1044 545
320 9 2 4 1 45 46 418 78 682 1045
321 9 2 4 1 394 324 430 813 1046 1047
322 9 2 4 1 432 393 436 942 862 1048
323 9 2 4 1 325 359 431 897 1049 1050
324 9 2 4 1 374 433 435 1028 1051 825
325 9 2 4 1 296 396 446 1022 613 1052
326 9 2 4 1 251 252 421 285 1053 1054
327 9 2 4 1 153 154 423 187 1055 1056
328 9 2 4 1 367 297 445 1024 1057 610
329 9 2 4 1 359 323 429 766 1058 1059
330 9 2 4 1 322 394 428 917 1060 1061
331 9 2 4 1 325 431 433 1050 1062 1027
332 9 2 4 1 430 324 432 1046 943 1063
333 9 2 4 1 323 357 427 865 1064 1065
334 9 2 4 1 358 322 426 867 1066 1067
335 9 2 4 1 359 429 431 1059 1068 1049
336 9 2 4 1 357 321 424 757 1069 1070
337 9 2 4 1 320 358 422 761 1071 1072
338 9 2 4 1 392 328 443 749 1073 637
339 9 2 4 1 428 394 430 1060 1047 1074
340 9 2 4 1 329 382 444 738 644 1075
341 9 2 4 1 382 295 442 661 1076 642
342 9 2 4 1 294 392 441 663 636 1077
343 9 2 4 1 333 367 447 730 612 1078
344 9 2 4 1 367 366 444 729 1079 1025
345 9 2 4 1 395 396 443 856 1023 1080
346 9 2 4 1 396 332 448 855 1081 614
347 9 2 4 1 400 334 453 754 1082 588
348 9 2 4 1 398 336 456 751 1083 548
349 9 2 4 1 335 380 452 850 582 1084
350 9 2 4 1 399 400 448 755 718 1085
351 9 2 4 1 380 379 447 849 1086 712
352 9 2 4 1 339 384 461 744 522 1087
353 9 2 4 1 397 398 453 752 704 1088
354 9 2 4 1 373 344 469 732 1089 537
355 9 2 4 1 346 390 468 747 540 1090
356 9 2 4 1 363 362 452 834 1091 702
357 9 2 4 1 426 322 428 1066 1061 1092
358 9 2 4 1 323 427 429 1065 1093 1058
359 9 2 4 1 351 365 472 724 554 1094
360 9 2 4 1 386 348 473 740 1095 556
361 9 2 4 1 376 338 460 843 1096 524
362 9 2 4 1 337 363 457 835 562 1097
363 9 2 4 1 384 383 457 743 1098 688
364 9 2 4 1 375 376 456 844 684 1099
365 9 2 4 1 347 369 471 727 544 1100
366 9 2 4 1 378 345 470 735 1101 541
367 9 2 4 1 343 45 418 939 1045 639
368 9 2 4 1 408 407 472 831 1102 584
369 9 2 4 1 360 361 460 838 674 1103
370 9 2 4 1 388 387 461 852 1104 672
371 9 2 4 1 361 340 467 837 1105 506
372 9 2 4 1 342 388 465 853 504 1106
373 9 2 4 1 372 373 467 733 650 1107
374 9 2 4 1 377 378 466 736 648 1108
375 9 2 4 1 390 389 465 746 1109 646
376 9 2 4 1 405 403 478 846 1110 595
377 9 2 4 1 350 402 478 859 569 1111
378 9 2 4 1 371 349 479 840 1112 571
379 9 2 4 1 385 386 470 741 627 1113
380 9 2 4 1 365 364 471 723 1114 625
381 9 2 4 1 370 371 469 841 621 1115
382 9 2 4 1 402 401 468 858 1116 619
383 9 2 4 1 404 405 473 847 597 1117
384 9 2 4 1 422 358 426 1071 1067 1118
385 9 2 4 1 357 424 427 1070 1119 1064
386 9 2 4 1 406 408 479 832 602 1120
387 9 2 4 1 296 243 441 962 1121 651
388 9 2 4 1 244 294 441 973 1077 1122
389 9 2 4 1 162 297 442 991 654 1123
390 9 2 4 1 295 161 442 984 1124 1076
391 9 2 4 1 3 7 287 80 1125 675
392 9 2 4 1 164 299 445 989 616 1126
393 9 2 4 1 297 163 445 990 1127 1057
394 9 2 4 1 298 241 446 960 1128 622
395 9 2 4 1 242 296 446 963 1052 1129
396 9 2 4 1 184 306 449 981 666 1130
397 9 2 4 1 309 183 449 986 1131 507
398 9 2 4 1 300 239 450 952 1132 590
399 9 2 4 1 240 298 450 961 941 1133
400 9 2 4 1 166 301 451 983 585 1134
401 9 2 4 1 299 165 451 988 1135 940
402 9 2 4 1 302 237 454 946 1136 550
403 9 2 4 1 238 300 454 953 708 1137
404 9 2 4 1 168 303 455 975 558 1138
405 9 2 4 1 301 167 455 982 1139 707
406 9 2 4 1 170 304 458 945 518 1140
407 9 2 4 1 303 169 458 974 1141 690
408 9 2 4 1 236 302 459 947 689 1142
409 9 2 4 1 305 235 459 992 1143 515
410 9 2 4 1 172 308 463 969 497 1144
411 9 2 4 1 304 171 463 944 1145 677
412 9 2 4 1 234 305 464 993 678 1146
413 9 2 4 1 310 233 464 1000 1147 500
414 9 2 4 1 9 10 420 13 1148 1149
415 9 2 4 1 146 147 419 150 1150 1151
416 9 2 4 1 174 312 474 955 533 1152
417 9 2 4 1 308 173 474 968 1153 656
418 9 2 4 1 313 181 475 978 1154 529
419 9 2 4 1 182 309 475 987 659 1155
420 9 2 4 1 314 231 476 998 1156 526
421 9 2 4 1 232 310 476 1001 660 1157
422 9 2 4 1 224 315 477 1003 536 1158
423 9 2 4 1 311 223 477 1014 1159 658
424 9 2 4 1 317 179 480 956 1160 563
425 9 2 4 1 180 313 480 979 631 1161
426 9 2 4 1 226 318 481 997 566 1162
427 9 2 4 1 315 225 481 1002 1163 630
428 9 2 4 1 176 316 482 951 576 1164
429 9 2 4 1 312 175 482 954 1165 628
430 9 2 4 1 230 314 483 999 629 1166
431 9 2 4 1 319 229 483 1010 1167 573
432 9 2 4 1 318 227 484 996 1168 592
433 9 2 4 1 228 319 484 1011 603 1169
434 9 2 4 1 178 317 485 957 599 1170
435 9 2 4 1 316 177 485 950 1171 600
436 9 2 4 1 288 251 421 976 1054 1172
437 9 2 4 1 154 289 423 1007 1173 1055
438 9 2 4 1 410 341 466 709 1174 511
439 9 2 4 1 147 148 331 151 1175 1176
440 9 2 4 1 8 9 330 12 1177 1178
441 9 2 4 1 220 307 425 1009 1179 1044
442 9 2 4 1 288 422 426 1180 1118 1181
443 9 2 4 1 424 289 427 1182 1183 1119
444 9 2 4 1 412 288 426 1035 1181 1184
445 9 2 4 1 289 417 427 1040 1185 1183
446 9 2 4 1 185 6 486 219 546 1186
447 9 2 4 1 290 412 428 1033 1187 1188
448 9 2 4 1 417 291 429 1043 1189 1190
449 9 2 4 1 412 426 428 1184 1092 1187
450 9 2 4 1 427 417 429 1185 1190 1093
451 9 2 4 1 307 415 439 1041 1191 695
452 9 2 4 1 368 343 496 882 1192 1193
453 9 2 4 1 411 290 430 1032 1194 1195
454 9 2 4 1 353 354 355 706 1196 1197
455 9 2 4 1 290 428 430 1188 1074 1194
456 9 2 4 1 291 416 431 1042 1198 1199
457 9 2 4 1 429 291 431 1189 1199 1068
458 9 2 4 1 288 421 422 1172 1200 1180
459 9 2 4 1 423 289 424 1173 1182 1201
460 9 2 4 1 411 430 432 1195 1063 1202
461 9 2 4 1 292 411 432 1030 1202 1203
462 9 2 4 1 416 293 433 1037 1204 1205
463 9 2 4 1 431 416 433 1198 1205 1062
464 9 2 4 1 112 4 490 145 1206 1207
465 9 2 4 1 2 15 489 47 1208 1209
466 9 2 4 1 293 414 435 1038 1210 1211
467 9 2 4 1 413 292 436 1031 1212 1213
468 9 2 4 1 433 293 435 1204 1211 1051
469 9 2 4 1 292 432 436 1203 1048 1212
470 9 2 4 1 294 413 437 1034 1214 664
471 9 2 4 1 414 295 438 1036 662 1215
472 9 2 4 1 435 414 438 1210 1215 1029
473 9 2 4 1 413 436 437 1213 1026 1214
474 9 2 4 1 252 1 492 286 1216 1217
475 9 2 4 1 5 153 491 186 1218 1219
476 9 2 4 1 328 395 443 817 1080 1073
477 9 2 4 1 418 356 439 680 696 640
478 9 2 4 1 243 244 441 277 1122 1121
479 9 2 4 1 161 162 442 195 1123 1124
480 9 2 4 1 352 353 356 698 1220 679
481 9 2 4 1 366 329 444 907 1075 1079
482 9 2 4 1 379 333 447 800 1078 1086
483 9 2 4 1 355 354 440 1196 1221 1222
484 9 2 4 1 163 164 445 197 1126 1127
485 9 2 4 1 241 242 446 275 1129 1128
486 9 2 4 1 332 399 448 929 1085 1081
487 9 2 4 1 362 335 452 763 1084 1091
488 9 2 4 1 425 307 493 1179 700 1223
489 9 2 4 1 183 184 449 217 1130 1131
490 9 2 4 1 239 240 450 273 1133 1132
491 9 2 4 1 165 166 451 199 1134 1135
492 9 2 4 1 334 397 453 932 1088 1082
493 9 2 4 1 336 375 456 778 1099 1083
494 9 2 4 1 338 360 460 770 1103 1096
495 9 2 4 1 387 339 461 803 1087 1104
496 9 2 4 1 383 337 457 872 1097 1098
497 9 2 4 1 237 238 454 271 1137 1136
498 9 2 4 1 167 168 455 201 1138 1139
499 9 2 4 1 407 351 472 720 1094 1102
500 9 2 4 1 330 9 420 1177 1149 1224
501 9 2 4 1 147 331 419 1176 1225 1150
502 9 2 4 1 401 346 468 823 1090 1116
503 9 2 4 1 344 370 469 785 1115 1089
504 9 2 4 1 169 170 458 203 1140 1141
505 9 2 4 1 235 236 459 269 1142 1143
506 9 2 4 1 348 404 473 792 1117 1095
507 9 2 4 1 389 342 465 919 1106 1109
508 9 2 4 1 341 377 466 905 1108 1174
509 9 2 4 1 340 372 467 891 1107 1105
510 9 2 4 1 403 350 478 828 1111 1110
511 9 2 4 1 171 172 463 205 1144 1145
512 9 2 4 1 233 234 464 267 1146 1147
513 9 2 4 1 345 385 470 900 1113 1101
514 9 2 4 1 364 347 471 893 1100 1114
515 9 2 4 1 349 406 479 886 1120 1112
516 9 2 4 1 173 174 474 207 1152 1153
517 9 2 4 1 181 182 475 215 1155 1154
518 9 2 4 1 231 232 476 265 1157 1156
519 9 2 4 1 223 224 477 257 1158 1159
520 9 2 4 1 421 252 492 1053 1217 1226
521 9 2 4 1 153 423 491 1056 1227 1218
522 9 2 4 1 179 180 480 213 1161 1160
523 9 2 4 1 225 226 481 259 1162 1163
524 9 2 4 1 175 176 482 209 1164 1165
525 9 2 4 1 229 230 483 263 1166 1167
526 9 2 4 1 415 311 462 1039 1228 1229
527 9 2 4 1 227 228 484 261 1169 1168
528 9 2 4 1 177 178 485 211 1170 1171
529 9 2 4 1 343 462 496 668 1230 1192
530 9 2 4 1 330 421 492 1231 1226 1232
531 9 2 4 1 423 331 491 1233 1234 1227
532 9 2 4 1 148 5 491 152 1219 1235
533 9 2 4 1 1 8 492 11 1236 1216
534 9 2 4 1 306 185 486 980 1186 1237
535 9 2 4 1 10 2 489 14 1209 1238
536 9 2 4 1 4 146 490 149 1239 1206
537 9 2 4 1 439 415 462 1191 1229 667
538 9 2 4 1 321 112 490 937 1207 1240
539 9 2 4 1 15 320 489 938 1241 1208
540 9 2 4 1 287 7 434 1125 653 1242
541 9 2 4 1 354 287 434 705 1242 1243
542 9 2 4 1 355 440 486 1222 1244 513
543 9 2 4 1 409 410 488 710 670 1245
544 9 2 4 1 331 423 495 1233 1246 1247
545 9 2 4 1 421 330 494 1231 1248 1249
546 9 2 4 1 355 425 493 512 1223 1250
547 9 2 4 1 353 355 493 1197 1250 1251
548 9 2 4 1 440 354 487 1221 1252 1253
549 9 2 4 1 422 421 494 1200 1249 1254
550 9 2 4 1 423 424 495 1201 1255 1246
551 9 2 4 1 419 321 490 1256 1240 1257
552 9 2 4 1 320 420 489 1258 1259 1241
553 9 2 4 1 440 306 486 1260 1237 1244
554 9 2 4 1 462 311 496 1228 686 1230
555 9 2 4 1 369 368 496 726 1193 685
556 9 2 4 1 320 422 494 1072 1254 1261
557 9 2 4 1 424 321 495 1069 1262 1255
558 9 2 4 1 354 434 487 1243 579 1252
559 9 2 4 1 420 320 494 1258 1261 1263
560 9 2 4 1 321 419 495 1256 1264 1262
561 9 2 4 1 356 353 493 1220 1251 699
562 9 2 4 1 306 440 488 1260 1265 669
563 9 2 4 1 420 10 489 1148 1238 1259
564 9 2 4 1 146 419 490 1151 1257 1239
565 9 2 4 1 8 330 492 1178 1232 1236
566 9 2 4 1 331 148 491 1175 1235 1234
567 9 2 4 1 487 409 488 633 1245 1266
568 9 2 4 1 330 420 494 1224 1263 1248
569 9 2 4 1 419 331 495 1225 1247 1264
570 9 2 4 1 440 487 488 1253 1266 1265
$EndElements
