$MeshFormat
2.2 0 8
$EndMeshFormat
$PhysicalNames
3
1 2 "Border"
1 3 "Contact"
2 1 "Tyre"
$EndPhysicalNames
$Nodes
453
1 3 5 0
2 0 8 0
3 -3 5 0
4 0 2 0
5 2 5 0
6 0 7 0
7 -2 5 0
8 0 3 0
9 -3 0 0
10 3 0 0
11 2.96306502156414 5.469303396517756 0
12 2.853169548155209 5.927050985372328 0
13 2.673019570674683 6.3619715029288 0
14 2.427050980282932 6.763355760788974 0
15 2.121320338345384 7.1213203487739 0
16 1.763355752385692 7.427050986388274 0
17 1.361971494974827 7.673019574727435 0
18 0.9270509803123053 7.853169549799309 0
19 0.4693033937246288 7.963065022006528 0
20 2.99075200114259 5.235377287905173 0
21 2.917109760710216 5.700336093578782 0
22 2.771638596271937 6.148050300141821 0
23 2.557920490577891 6.567495698201996 0
24 2.281217893032871 6.948344149401402 0
25 1.948344139972404 7.281217901085995 0
26 1.567495689750116 7.55792049575721 0
27 1.148050293305709 7.771638599103547 0
28 0.7003360897490871 7.917109761629645 0
29 0.2353772866074373 7.990752001244724 0
30 -0.4693033963272089 7.96306502159432 0
31 -0.9270509856735993 7.85316954805732 0
32 -1.361971503188298 7.673019570542462 0
33 -1.763355761953624 7.427050979436763 0
34 -2.121320348998331 7.121320338120954 0
35 -2.427050986820359 6.763355751790978 0
36 -2.673019575066569 6.361971494309238 0
37 -2.853169549892448 5.927050980025652 0
38 -2.963065021933713 5.469303394184365 0
39 -0.2353772877262408 7.990752001156672 0
40 -0.700336093483275 7.917109760733145 0
41 -1.148050300438133 7.7716385961492 0
42 -1.567495698711683 7.557920490265554 0
43 -1.948344150434648 7.281217892150394 0
44 -2.281217901494058 6.948344139494623 0
45 -2.557920496338919 6.567495688800851 0
46 -2.771638599460104 6.148050292444905 0
47 -2.917109761587481 5.700336089924706 0
48 -2.99075200123149 5.235377286775583 0
49 -2.963065021551657 4.530696603403429 0
50 -2.853169548105891 4.072949014475889 0
51 -2.673019570602785 3.638028496930094 0
52 -2.427050979888445 3.236644238668062 0
53 -2.121320338511776 2.878679651392491 0
54 -1.763355752422324 2.572949013638341 0
55 -1.361971495096258 2.326980425334438 0
56 -0.9270509804866683 2.146830450257345 0
57 -0.4693033938054243 2.036934978006268 0
58 -2.99075200114974 4.764622712185687 0
59 -2.917109760640391 4.299663906130377 0
60 -2.771638596098102 3.851949699438505 0
61 -2.557920490575923 3.432504301794793 0
62 -2.2812178926443 3.051655850143641 0
63 -1.948344140188754 2.718782099098785 0
64 -1.567495689785232 2.44207950426431 0
65 -1.148050293726337 2.228361401070682 0
66 -0.7003360894683228 2.082890238302951 0
67 -0.2353772864312581 2.009247998741411 0
68 0.4693033963971999 2.036934978416766 0
69 0.9270509858080744 2.146830451986374 0
70 1.361971503143668 2.326980429434798 0
71 1.763355761516729 2.572949020245814 0
72 2.121320348782862 2.878679661663576 0
73 2.427050986598276 3.236644247903353 0
74 2.673019574997614 3.63802850555543 0
75 2.853169549861709 4.072949019879741 0
76 2.963065021925932 4.530696605766509 0
77 0.2353772877966663 2.009247998848871 0
78 0.7003360936271804 2.082890239301404 0
79 1.14805030036995 2.228361403822557 0
80 1.567495698433435 2.442079509563935 0
81 1.948344150026069 2.718782107500646 0
82 2.281217901063985 3.051655860001825 0
83 2.557920495954654 3.432504310572083 0
84 2.771638599197544 3.851949706921218 0
85 2.917109761616644 4.299663910196765 0
86 2.990752001230688 4.764622713214218 0
87 1.949855824329657 5.445041868061549 0
88 1.801937735102672 5.867767479693179 0
89 1.563662962985638 6.246979606163218 0
90 1.246979601538115 6.563662966674035 0
91 0.8677674761039095 6.801937736831174 0
92 0.4450418665500135 6.949855824674655 0
93 1.987424419861729 5.223928951538804 0
94 1.887766660288904 5.660558124847221 0
95 1.693448397145009 6.064064155118008 0
96 1.414213559959808 6.414213564786382 0
97 1.064064151239418 6.693448399582088 0
98 0.660558122187713 6.887766661219507 0
99 0.2239289514113817 6.987424419876087 0
100 -0.4450418689576403 6.94985582412513 0
101 -0.8677674807195229 6.801937734608411 0
102 -1.246979607051015 6.563662962277643 0
103 -1.563662967428585 6.246979600591939 0
104 -1.801937736930982 5.867767475896654 0
105 -1.949855824666439 5.445041866586012 0
106 -0.2239289526561336 6.987424419735836 0
107 -0.660558125643284 6.88776666001035 0
108 -1.064064155762547 6.693448396740018 0
109 -1.414213566136579 6.414213558609611 0
110 -1.693448400508518 6.064064149765015 0
111 -1.887766661261672 5.66055812206721 0
112 -1.987424419904206 5.223928951161818 0
113 -1.949855824297591 4.554958131797962 0
114 -1.801937734977626 4.132232520047159 0
115 -1.563662962897409 3.753020393726146 0
116 -1.246979601388265 3.436337033206464 0
117 -0.8677674760423321 3.198062263139173 0
118 -0.445041866621455 3.050144175341651 0
119 -1.987424419756765 4.776071047529611 0
120 -1.887766660040213 4.339441874442061 0
121 -1.693448397106635 3.93593584482092 0
122 -1.414213559905023 3.585786435158833 0
123 -1.064064150768731 3.306551600122159 0
124 -0.6605581222062944 3.112233338786996 0
125 -0.2239289513465185 3.012575580116605 0
126 0.4450418689573836 3.050144175874811 0
127 0.8677674804526473 3.198062265263069 0
128 1.246979606901183 3.436337037602869 0
129 1.563662967375647 3.753020399341679 0
130 1.801937736869752 4.1322325239762 0
131 1.949855824650738 4.554958133345197 0
132 0.2239289526590907 3.012575580264496 0
133 0.6605581255865335 3.112233339969793 0
134 1.064064155812724 3.30655160329151 0
135 1.414213565699199 3.585786440953008 0
136 1.69344840008776 3.935935849565353 0
137 1.88776666128453 4.339441877998113 0
138 1.987424419891928 4.776071048729217 0
139 -2.500000000001852 0 0
140 -2.000000000003705 0 0
141 -1.500000000005556 0 0
142 -1.000000000007407 0 0
143 -0.5000000000092579 0 0
144 -1.10227382776884e-11 0 0
145 0.499999999990739 0 0
146 0.9999999999925877 0 0
147 1.499999999994441 0 0
148 1.999999999996295 0 0
149 2.499999999998146 0 0
150 -2.750000000000932 0 0
151 -2.250000000002645 0 0
152 -1.750000000004593 0 0
153 -1.250000000006458 0 0
154 -0.7500000000082894 0 0
155 -0.2500000000100817 0 0
156 0.2499999999898082 0 0
157 0.7499999999914269 0 0
158 1.249999999993475 0 0
159 1.749999999995139 0 0
160 2.249999999997459 0 0
161 2.749999999999312 0 0
162 1.952809931180005 3.772762095061158 0
163 -1.952809931258311 6.227237904829349 0
164 -1.227237905399785 3.047190069059511 0
165 1.227237905505371 6.952809930877933 0
166 1.95280992800572 6.227237910068301 0
167 -1.952809927870813 3.772762089739705 0
168 1.22723791099133 3.047190072591127 0
169 -1.227237911177751 6.952809927286704 0
170 -2.293938269188996 5.258994047516166 0
171 2.293938269178458 4.7410059524118 0
172 0.258994047431033 7.293938269255851 0
173 -0.2589940474548584 2.706061730744091 0
174 2.282870401477352 5.26015288484381 0
175 -2.282870401452362 4.739847115041541 0
176 -0.2601528854265517 7.282870401460134 0
177 0.2601528853801707 2.717129598531969 0
178 -2.158805410740937 5.754941224905156 0
179 2.158805410697672 4.245058774987946 0
180 -0.7549412250779032 2.841194589313607 0
181 0.7549412250834096 7.158805410665916 0
182 2.156960764728141 5.755134367369109 0
183 -2.156960764645383 4.244865632437747 0
184 -0.755134368367264 7.156960764382145 0
185 0.7551343682358865 2.843039235546692 0
186 1.634284286759244 3.365715719380834 0
187 -1.634284286883444 6.634284280503153 0
188 1.634284281491328 6.63428428606684 0
189 -1.634284281335164 3.365715713812901 0
190 -2.543600345429299 5.59175528516761 0
191 2.54360034540268 4.408244714748943 0
192 0.5917552851855334 7.543600345387918 0
193 -0.5917552852284089 2.456399654611353 0
194 -2.541448259012549 4.408019382498914 0
195 2.541448259067262 5.591980617362564 0
196 -0.5919806179035004 7.54144825885632 0
197 0.5919806178686928 2.458551741112895 0
198 1.658066191237991 7.024593048357572 0
199 2.024593048767917 3.341933809228264 0
200 -2.024593048921179 6.65806619059391 0
201 -1.658066191187837 2.975406951609177 0
202 2.026878128249097 6.651838903981872 0
203 1.651838904635965 2.973121872264496 0
204 -1.651838904859256 7.026878127551702 0
205 -2.026878128130435 3.348161095854863 0
206 2.367737052404805 3.859757935210925 0
207 -2.36773705248828 6.140242064646295 0
208 -1.140242064938715 2.632262947628603 0
209 1.140242064966998 7.367737052324629 0
210 2.367737050131226 6.140242069835652 0
211 -2.367737049988573 3.859757929906844 0
212 1.140242070997711 2.632262950477362 0
213 -1.140242071221206 7.367737049368733 0
214 -4.051726464860261e-10 7.62488676827528 0
215 -2.624886768331424 4.999999999728034 0
216 3.931149544677906e-10 2.375113231718207 0
217 2.624886768347506 5.000000000236741 0
218 1.710710971811842 7.225822017372923 0
219 1.451798908676345 7.39739401935645 0
220 1.399154128102495 7.196165050341101 0
221 -1.710710971805081 2.774177982623759 0
222 -1.451798908680519 2.602605980633472 0
223 -1.399154128063276 2.80383494961889 0
224 2.226964554266014 6.707597332385422 0
225 2.197307589190161 6.396040486908762 0
226 2.397394015207079 6.451798915312312 0
227 2.225822017683097 3.289289028565808 0
228 2.397394019501541 3.548201091557139 0
229 2.196165050586361 3.600845872219595 0
230 -2.225822017870769 6.710710971192444 0
231 -2.397394019654319 6.451798908218636 0
232 -2.196165050704729 6.399154127620103 0
233 -2.22696455400944 3.292402667261463 0
234 -2.197307589059504 3.603959512880853 0
235 -2.397394014938509 3.548201084287453 0
236 1.707597333076347 2.773035446255154 0
237 1.396040487816838 2.802692411370929 0
238 1.45179891625722 2.602605985361588 0
239 -1.70759733340644 7.226964553494232 0
240 -1.396040488040231 7.197307588460217 0
241 -1.451798916587415 7.397394014402747 0
242 2.520378310402954 6.251106786382224 0
243 -1.251106780017487 2.47962168648152 0
244 2.520378313701209 3.748893220383177 0
245 1.251106779970912 7.520378313526031 0
246 -2.520378313777424 6.251106779477766 0
247 -2.520378310295679 3.748893213418468 0
248 1.25110678707069 2.47962168995608 0
249 -1.251106787204752 7.520378309955597 0
250 -2.753332683681506 5.530529339675987 0
251 -2.793975895132569 5.234651696956199 0
252 -2.584243556880361 5.295877642447823 0
253 2.753332683664306 4.469470660257724 0
254 2.793975895136719 4.765348303001624 0
255 2.584243556875093 4.704122357492841 0
256 0.5305293394550812 7.753332683697223 0
257 0.2346516966597281 7.793975895140903 0
258 0.2958776423901804 7.584243556831599 0
259 -0.5305293395169166 2.24666731630881 0
260 -0.2346516967061547 2.206024104862237 0
261 -0.295877642417647 2.41575644316478 0
262 -0.5306420071153547 7.752256640225319 0
263 -0.2959903091543366 7.5831675135658 0
264 -0.2346516983661908 7.793975894934799 0
265 -2.752256640282103 4.469357992951171 0
266 -2.583167513671986 4.704009691113474 0
267 -2.79397589494154 4.765348301565731 0
268 0.5306420071329463 2.24774335976483 0
269 0.2959903091309039 2.416832486415551 0
270 0.2346516983951574 2.206024105067486 0
271 2.752256640315701 5.53064200694016 0
272 2.583167513707384 5.295990308799653 0
273 2.793975894955823 5.234651698377248 0
274 -2.698384947660874 5.75940313259663 0
275 -2.45566869895879 5.865998674906953 0
276 -2.610453301190364 6.033646522335973 0
277 2.698384947632195 4.24059686731434 0
278 2.455668698903743 4.134001324979933 0
279 2.610453301133257 3.966353477545332 0
280 0.7594031327489194 7.698384947593612 0
281 0.8659986750762655 7.455668698856273 0
282 1.033646522639651 7.610453301061969 0
283 -0.7594031328575386 2.301615052434348 0
284 -0.8659986750835619 2.544331301119978 0
285 -1.033646522712692 2.389546698942973 0
286 2.697308903611235 5.759515801367445 0
287 2.610453299143217 6.033646527603989 0
288 2.454592654599244 5.866111343599107 0
289 -0.7595158017885499 7.697308903456819 0
290 -1.033646528447403 7.610453298713026 0
291 -0.8661113445623534 7.454592654112527 0
292 -2.69730890355922 4.2404841984874 0
293 -2.610453299047232 3.966353472191366 0
294 -2.454592654500561 4.133888656202878 0
295 0.7595158018383836 2.302691096549634 0
296 1.033646528402893 2.389546701231868 0
297 0.8661113444332019 2.545407345795129 0
298 1.889693264791688 7.072956698565736 0
299 1.842472159743544 6.838215976169722 0
300 2.074099233297241 6.886579626377885 0
301 -1.889693264849807 2.927043301500834 0
302 -1.842472159659136 3.16178402373202 0
303 -2.074099233321106 3.113420373623677 0
304 2.072956698775389 3.11030673544592 0
305 1.838215976701941 3.15752784074638 0
306 1.886579626709413 2.925900766964035 0
307 -2.072956698959755 6.889693264357431 0
308 -1.838215976890217 6.842472159072806 0
309 -1.886579626928793 7.074099232836327 0
310 1.989844028127409 6.439538407025087 0
311 2.160273489068473 6.183739989951976 0
312 1.439538407813648 3.010155972427811 0
313 1.183739990994521 2.839726511534244 0
314 -1.989844028000624 3.560461592797284 0
315 -2.160273488929693 3.816260009823275 0
316 -1.439538408018504 6.989844027419203 0
317 -1.183739991199479 7.160273488327719 0
318 1.442652048371681 6.988701489617752 0
319 1.183739985236184 7.160273491601282 0
320 -1.442652048293811 3.011298510334344 0
321 -1.18373998516925 2.839726508344057 0
322 -1.988701490089745 6.44265204771163 0
323 -2.160273491873296 6.183739984737822 0
324 1.988701489973961 3.557347952144711 0
325 2.160273491792405 3.816260015136042 0
326 -0.4260667516650261 7.412159330158228 0
327 -0.1300764429158622 7.453878584867707 0
328 0.4260667516244317 2.587840669822432 0
329 0.1300764428866428 2.546121415125088 0
330 -2.412159330232455 4.573933248770227 0
331 -2.453878584891893 4.869923557384788 0
332 2.418769307290569 4.574625333580371 0
333 2.459412518762982 4.87050297632427 0
334 -2.418769307309148 5.425374666341888 0
335 -2.45941251876021 5.1294970236221 0
336 2.412159330272307 5.426066751103187 0
337 2.453878584912429 5.130076442540276 0
338 -0.4253746663416337 2.581230692677722 0
339 -0.1294970235308717 2.540587481231149 0
340 0.4253746663082832 7.418769307321885 0
341 0.1294970235129302 7.459412518765565 0
342 -0.6735574931353823 7.349204511619233 0
343 -0.9476882197942352 7.262348906875439 0
344 0.6735574930522896 2.650795488329793 0
345 0.9476882196167988 2.737651093012027 0
346 2.349204511897701 5.673557492365837 0
347 2.262348907429683 5.947688218602381 0
348 -2.349204511828966 4.32644250746833 0
349 -2.262348907316978 4.052311781172295 0
350 2.351202878050176 4.326651744868444 0
351 2.263271231551238 4.052408355099435 0
352 0.6733482551344715 7.351202878026917 0
353 0.9475916450252035 7.263271231495273 0
354 -2.351202878085118 5.673348255036383 0
355 -2.263271231614609 5.947591644775726 0
356 -0.673348255153156 2.64879712196248 0
357 -0.9475916450083091 2.736728768471105 0
358 1.64617523636466 6.829438667212206 0
359 1.830581204870212 6.643061595024355 0
360 -1.646175236261501 3.170561332711039 0
361 -1.8305812047328 3.356938404833882 0
362 1.829438667763581 3.353824764304549 0
363 1.643061595697605 3.169418795822665 0
364 -1.829438667902311 6.646175235548532 0
365 -1.643061595871349 6.830581204027427 0
366 -2.812443384165712 4.999999999864016 0
367 2.812443384173753 5.00000000011837 0
368 -2.025863232430131e-10 7.812443384137639 0
369 1.965574772338953e-10 2.187556615859103 0
370 -2.116363112874977 4.64740262341975 0
371 -2.219915583048873 4.492356373739644 0
372 -2.053408294471487 4.399911882117853 0
373 -0.3525973771920959 7.116363112792631 0
374 -0.5076436268969078 7.21991558292114 0
375 -0.6000881186624522 7.053408294253637 0
376 2.116363112903505 5.352597376452679 0
377 2.219915583102746 5.50764362610646 0
378 2.053408294528899 5.600088117715328 0
379 0.3525973771687771 2.88363688720339 0
380 0.5076436268080287 2.78008441703933 0
381 0.6000881185966351 2.946591705710751 0
382 2.121897046914598 4.647982042878497 0
383 2.054330617674204 4.400008454166571 0
384 2.226371839938065 4.493032363699872 0
385 -2.121897046927717 5.352017957051088 0
386 -2.054330617703688 5.599991545745583 0
387 -2.226371839964966 5.506967636210661 0
388 0.3520179569905233 7.121897046965253 0
389 0.5999915458167115 7.054330617670285 0
390 0.5069676362572213 7.226371839960884 0
391 -0.3520179570381567 2.87810295304287 0
392 -0.5999915458496791 2.945669382327628 0
393 -0.5069676362663809 2.773628160028849 0
394 0.1294970237155165 7.146969134627924 0
395 -0.0005794189977593178 7.288404335357993 0
396 -0.1300764427132758 7.141435200730066 0
397 -0.1294970237274292 2.853030865372045 0
398 0.0005794189626561197 2.711595664638029 0
399 0.1300764426900854 2.858564799265984 0
400 -2.146969134594498 5.129497023758081 0
401 -2.288404335320679 4.999420581278853 0
402 -2.141435200726181 4.86992355752077 0
403 2.146969134589229 4.870502976205899 0
404 2.288404335327905 5.000579418627805 0
405 2.141435200738676 5.130076442421904 0
406 1.758236445495679 6.237108758115759 0
407 1.793547104748524 6.43076109806757 0
408 1.598973622238483 6.440631946115028 0
409 1.237108758946257 3.241763555096997 0
410 1.430761098875287 3.20645289598598 0
411 1.440631946830213 3.401026378491851 0
412 -1.758236445384111 3.762891241732925 0
413 -1.793547104602989 3.569238901776303 0
414 -1.598973622116286 3.559368053769523 0
415 -1.237108759114383 6.758236444782173 0
416 -1.430761099030597 6.793547103894928 0
417 -1.440631946967229 6.598973621390397 0
418 1.237108753521743 6.758236448775983 0
419 1.440631941514722 6.598973626370436 0
420 1.430761093498349 6.793547108472386 0
421 -1.237108753394025 3.241763551132987 0
422 -1.440631941361715 3.401026373509682 0
423 -1.430761093367475 3.206452891436206 0
424 1.758236449277826 3.762891247201418 0
425 1.598973627067446 3.559368059361256 0
426 1.793547108969624 3.569238907220996 0
427 -1.758236449343448 6.237108752710643 0
428 -1.598973627156014 6.440631940547545 0
429 -1.793547109070877 6.430761092666251 0
430 1.04750269080464 6.877373833854553 0
431 0.9910895652943903 7.055807670771925 0
432 0.8113543505936596 6.980371573748545 0
433 -1.047502690721059 3.122626166099341 0
434 -0.9910895652388441 2.944192329186559 0
435 -0.8113543505601176 3.01962842622639 0
436 1.877373831554196 6.047502694880739 0
437 1.979449249915406 5.811450923531143 0
438 2.05488534636693 5.991186138718706 0
439 -1.877373831424219 3.952497304893432 0
440 -1.979449249811504 4.188549076242452 0
441 -2.054885346258098 4.008813861088726 0
442 -1.047502695948637 6.877373830947556 0
443 -0.8114509245433934 6.979449249495278 0
444 -0.9911861397725077 7.054885345834424 0
445 1.877373834024878 3.952497309518678 0
446 2.055807670938838 4.008910435024552 0
447 1.980371573783712 4.188645649482072 0
448 1.047502695721989 3.122626168927097 0
449 0.8114509243442669 3.02055075040488 0
450 0.9911861396136084 2.945114654068909 0
451 -1.877373834094647 6.047502690363001 0
452 -2.055807670999624 5.991089564867253 0
453 -1.98037157383596 5.811354350400904 0
$EndNodes
$Elements
232
1 8 2 2 1 1 11 20
2 8 2 2 1 11 12 21
3 8 2 2 1 12 13 22
4 8 2 2 1 13 14 23
5 8 2 2 1 14 15 24
6 8 2 2 1 15 16 25
7 8 2 2 1 16 17 26
8 8 2 2 1 17 18 27
9 8 2 2 1 18 19 28
10 8 2 2 1 19 2 29
11 8 2 2 2 2 30 39
12 8 2 2 2 30 31 40
13 8 2 2 2 31 32 41
14 8 2 2 2 32 33 42
15 8 2 2 2 33 34 43
16 8 2 2 2 34 35 44
17 8 2 2 2 35 36 45
18 8 2 2 2 36 37 46
19 8 2 2 2 37 38 47
20 8 2 2 2 38 3 48
21 8 2 2 3 3 49 58
22 8 2 2 3 49 50 59
23 8 2 2 3 50 51 60
24 8 2 2 3 51 52 61
25 8 2 2 3 52 53 62
26 8 2 2 3 53 54 63
27 8 2 2 3 54 55 64
28 8 2 2 3 55 56 65
29 8 2 2 3 56 57 66
30 8 2 2 3 57 4 67
31 8 2 2 4 4 68 77
32 8 2 2 4 68 69 78
33 8 2 2 4 69 70 79
34 8 2 2 4 70 71 80
35 8 2 2 4 71 72 81
36 8 2 2 4 72 73 82
37 8 2 2 4 73 74 83
38 8 2 2 4 74 75 84
39 8 2 2 4 75 76 85
40 8 2 2 4 76 1 86
41 8 2 3 9 9 139 150
42 8 2 3 9 139 140 151
43 8 2 3 9 140 141 152
44 8 2 3 9 141 142 153
45 8 2 3 9 142 143 154
46 8 2 3 9 143 144 155
47 8 2 3 9 144 145 156
48 8 2 3 9 145 146 157
49 8 2 3 9 146 147 158
50 8 2 3 9 147 148 159
51 8 2 3 9 148 149 160
52 8 2 3 9 149 10 161
53 9 2 1 1 198 16 209 218 219 220
54 9 2 1 1 201 54 208 221 222 223
55 9 2 1 1 14 202 210 224 225 226
56 9 2 1 1 199 73 206 227 228 229
57 9 2 1 1 200 35 207 230 231 232
58 9 2 1 1 52 205 211 233 234 235
59 9 2 1 1 71 203 212 236 237 238
60 9 2 1 1 33 204 213 239 240 241
61 9 2 1 1 13 14 210 23 226 242
62 9 2 1 1 54 55 208 64 243 222
63 9 2 1 1 73 74 206 83 244 228
64 9 2 1 1 16 17 209 26 245 219
65 9 2 1 1 35 36 207 45 246 231
66 9 2 1 1 51 52 211 61 235 247
67 9 2 1 1 70 71 212 80 238 248
68 9 2 1 1 32 33 213 42 241 249
69 9 2 1 1 190 38 215 250 251 252
70 9 2 1 1 191 76 217 253 254 255
71 9 2 1 1 192 19 214 256 257 258
72 9 2 1 1 193 57 216 259 260 261
73 9 2 1 1 30 196 214 262 263 264
74 9 2 1 1 49 194 215 265 266 267
75 9 2 1 1 68 197 216 268 269 270
76 9 2 1 1 11 195 217 271 272 273
77 9 2 1 1 37 190 207 274 275 276
78 9 2 1 1 75 191 206 277 278 279
79 9 2 1 1 18 192 209 280 281 282
80 9 2 1 1 56 193 208 283 284 285
81 9 2 1 1 195 12 210 286 287 288
82 9 2 1 1 196 31 213 289 290 291
83 9 2 1 1 194 50 211 292 293 294
84 9 2 1 1 197 69 212 295 296 297
85 9 2 1 1 15 198 202 298 299 300
86 9 2 1 1 53 201 205 301 302 303
87 9 2 1 1 72 199 203 304 305 306
88 9 2 1 1 34 200 204 307 308 309
89 9 2 1 1 202 166 210 310 311 225
90 9 2 1 1 203 168 212 312 313 237
91 9 2 1 1 205 167 211 314 315 234
92 9 2 1 1 204 169 213 316 317 240
93 9 2 1 1 165 198 209 318 220 319
94 9 2 1 1 164 201 208 320 223 321
95 9 2 1 1 163 200 207 322 232 323
96 9 2 1 1 162 199 206 324 229 325
97 9 2 1 1 196 176 214 326 327 263
98 9 2 1 1 197 177 216 328 329 269
99 9 2 1 1 194 175 215 330 331 266
100 9 2 1 1 171 191 217 332 255 333
101 9 2 1 1 170 190 215 334 252 335
102 9 2 1 1 195 174 217 336 337 272
103 9 2 1 1 173 193 216 338 261 339
104 9 2 1 1 172 192 214 340 258 341
105 9 2 1 1 184 196 213 342 291 343
106 9 2 1 1 185 197 212 344 297 345
107 9 2 1 1 182 195 210 346 288 347
108 9 2 1 1 183 194 211 348 294 349
109 9 2 1 1 191 179 206 350 351 278
110 9 2 1 1 192 181 209 352 353 281
111 9 2 1 1 190 178 207 354 355 275
112 9 2 1 1 193 180 208 356 357 284
113 9 2 1 1 198 188 202 358 359 299
114 9 2 1 1 201 189 205 360 361 302
115 9 2 1 1 199 186 203 362 363 305
116 9 2 1 1 200 187 204 364 365 308
117 9 2 1 1 3 49 215 58 267 366
118 9 2 1 1 38 3 215 48 366 251
119 9 2 1 1 1 11 217 20 273 367
120 9 2 1 1 76 1 217 86 367 254
121 9 2 1 1 2 30 214 39 264 368
122 9 2 1 1 4 68 216 77 270 369
123 9 2 1 1 19 2 214 29 368 257
124 9 2 1 1 57 4 216 67 369 260
125 9 2 1 1 113 175 183 370 371 372
126 9 2 1 1 100 176 184 373 374 375
127 9 2 1 1 87 174 182 376 377 378
128 9 2 1 1 126 177 185 379 380 381
129 9 2 1 1 171 131 179 382 383 384
130 9 2 1 1 170 105 178 385 386 387
131 9 2 1 1 172 92 181 388 389 390
132 9 2 1 1 173 118 180 391 392 393
133 9 2 1 1 6 172 176 394 395 396
134 9 2 1 1 8 173 177 397 398 399
135 9 2 1 1 7 170 175 400 401 402
136 9 2 1 1 5 171 174 403 404 405
137 9 2 1 1 89 166 188 406 407 408
138 9 2 1 1 128 168 186 409 410 411
139 9 2 1 1 115 167 189 412 413 414
140 9 2 1 1 102 169 187 415 416 417
141 9 2 1 1 165 90 188 418 419 420
142 9 2 1 1 164 116 189 421 422 423
143 9 2 1 1 162 129 186 424 425 426
144 9 2 1 1 163 103 187 427 428 429
145 9 2 1 1 91 165 181 430 431 432
146 9 2 1 1 117 164 180 433 434 435
147 9 2 1 1 166 88 182 436 437 438
148 9 2 1 1 167 114 183 439 440 441
149 9 2 1 1 169 101 184 442 443 444
150 9 2 1 1 130 162 179 445 446 447
151 9 2 1 1 168 127 185 448 449 450
152 9 2 1 1 104 163 178 451 452 453
153 9 2 1 1 74 75 206 84 279 244
154 9 2 1 1 36 37 207 46 276 246
155 9 2 1 1 17 18 209 27 282 245
156 9 2 1 1 55 56 208 65 285 243
157 9 2 1 1 12 13 210 22 242 287
158 9 2 1 1 50 51 211 60 247 293
159 9 2 1 1 31 32 213 41 249 290
160 9 2 1 1 69 70 212 79 248 296
161 9 2 1 1 171 179 191 384 350 332
162 9 2 1 1 170 178 190 387 354 334
163 9 2 1 1 184 176 196 374 326 342
164 9 2 1 1 172 181 192 390 352 340
165 9 2 1 1 173 180 193 393 356 338
166 9 2 1 1 183 175 194 371 330 348
167 9 2 1 1 185 177 197 380 328 344
168 9 2 1 1 182 174 195 377 336 346
169 9 2 1 1 165 188 198 420 358 318
170 9 2 1 1 164 189 201 423 360 320
171 9 2 1 1 188 166 202 407 310 359
172 9 2 1 1 186 168 203 410 312 363
173 9 2 1 1 187 169 204 416 316 365
174 9 2 1 1 162 186 199 426 362 324
175 9 2 1 1 189 167 205 413 314 361
176 9 2 1 1 163 187 200 429 364 322
177 9 2 1 1 176 172 214 395 341 327
178 9 2 1 1 177 173 216 398 339 329
179 9 2 1 1 175 170 215 401 335 331
180 9 2 1 1 174 171 217 404 333 337
181 9 2 1 1 166 182 210 438 347 311
182 9 2 1 1 167 183 211 441 349 315
183 9 2 1 1 181 165 209 431 319 353
184 9 2 1 1 180 164 208 434 321 357
185 9 2 1 1 169 184 213 444 343 317
186 9 2 1 1 168 185 212 450 345 313
187 9 2 1 1 179 162 206 446 325 351
188 9 2 1 1 178 163 207 452 323 355
189 9 2 1 1 129 128 186 135 411 425
190 9 2 1 1 103 102 187 109 417 428
191 9 2 1 1 116 115 189 122 414 422
192 9 2 1 1 90 89 188 96 408 419
193 9 2 1 1 114 113 183 120 372 440
194 9 2 1 1 88 87 182 94 378 437
195 9 2 1 1 131 130 179 137 447 383
196 9 2 1 1 105 104 178 111 453 386
197 9 2 1 1 92 91 181 98 432 389
198 9 2 1 1 101 100 184 107 375 443
199 9 2 1 1 118 117 180 124 435 392
200 9 2 1 1 127 126 185 133 381 449
201 9 2 1 1 100 6 176 106 396 373
202 9 2 1 1 126 8 177 132 399 379
203 9 2 1 1 113 7 175 119 402 370
204 9 2 1 1 87 5 174 93 405 376
205 9 2 1 1 5 131 171 138 382 403
206 9 2 1 1 7 105 170 112 385 400
207 9 2 1 1 6 92 172 99 388 394
208 9 2 1 1 8 118 173 125 391 397
209 9 2 1 1 89 88 166 95 436 406
210 9 2 1 1 128 127 168 134 448 409
211 9 2 1 1 91 90 165 97 418 430
212 9 2 1 1 117 116 164 123 421 433
213 9 2 1 1 102 101 169 108 442 415
214 9 2 1 1 115 114 167 121 439 412
215 9 2 1 1 130 129 162 136 424 445
216 9 2 1 1 104 103 163 110 427 451
217 9 2 1 1 14 15 202 24 300 224
218 9 2 1 1 52 53 205 62 303 233
219 9 2 1 1 71 72 203 81 306 236
220 9 2 1 1 33 34 204 43 309 239
221 9 2 1 1 72 73 199 82 227 304
222 9 2 1 1 34 35 200 44 230 307
223 9 2 1 1 53 54 201 63 221 301
224 9 2 1 1 15 16 198 25 218 298
225 9 2 1 1 37 38 190 47 250 274
226 9 2 1 1 75 76 191 85 253 277
227 9 2 1 1 56 57 193 66 259 283
228 9 2 1 1 18 19 192 28 256 280
229 9 2 1 1 11 12 195 21 286 271
230 9 2 1 1 49 50 194 59 292 265
231 9 2 1 1 30 31 196 40 289 262
232 9 2 1 1 68 69 197 78 295 268
$EndElements
